<svg width="145" height="38" viewBox="0 0 145 38" fill="none" xmlns="http://www.w3.org/2000/svg">
<path d="M22.3305 7.74661H27.2483V28.2633H22.3305V7.74661ZM48.5495 8.71384C50.0008 9.68108 51.1091 10.965 51.8749 12.5632C52.6407 14.1622 53.0236 15.9023 53.0236 17.7831C53.0236 19.6914 52.6336 21.4448 51.8549 23.043C51.075 24.6424 49.9604 25.9122 48.5091 26.8524C47.0583 27.7934 45.3248 28.2633 43.3096 28.2633C41.8584 28.2633 40.5482 27.9949 39.3795 27.4567C38.2104 26.9198 37.2898 26.1669 36.6185 25.1997V37.1711H31.7007V7.74661H36.4974V9.41971V10.6891C37.0617 9.64029 37.9549 8.8079 39.1781 8.18944C40.4004 7.57181 41.7909 7.26257 43.35 7.26257C45.3652 7.26257 47.0982 7.74661 48.5495 8.71384ZM45.3852 23.0834C46.2317 22.5594 46.8968 21.841 47.3804 20.9271C47.8644 20.0139 48.1063 18.9659 48.1063 17.7831C48.1063 16.6544 47.8774 15.6268 47.4208 14.6995C46.9634 13.7723 46.3125 13.0339 45.4659 12.4825C44.6194 11.9323 43.6047 11.6563 42.4227 11.6563C41.294 11.6563 40.2864 11.9181 39.3995 12.4425C38.513 12.9661 37.8204 13.6919 37.3239 14.6188C36.8262 15.5461 36.5781 16.6011 36.5781 17.7831C36.5781 18.9389 36.8262 19.9798 37.3239 20.9067C37.8204 21.8339 38.513 22.5594 39.3995 23.0834C40.2864 23.6078 41.294 23.8695 42.4227 23.8695C43.5514 23.8695 44.5386 23.6078 45.3852 23.0834ZM71.061 27.1546C69.5132 28.0515 67.7889 28.5047 65.8811 28.5047C63.7581 28.5047 61.9243 28.0415 60.3794 27.1142C58.8337 26.1873 57.6583 24.9313 56.8522 23.3456C56.0464 21.7603 55.6431 19.9869 55.6431 18.0249C55.6431 16.0368 56.0726 14.2297 56.9329 12.6036C57.7928 10.9779 59.0151 9.68108 60.6008 8.71384C62.1861 7.74661 64.0132 7.26257 66.0829 7.26257C67.8563 7.26257 69.435 7.62591 70.8392 8.31055C72.8199 9.27654 73.8795 10.6616 74.8467 12.0317L70.8796 14.3166C70.2881 13.4297 69.6031 12.7717 68.8236 12.3414C68.044 11.9119 67.1442 11.6967 66.1233 11.6967C64.9405 11.6967 63.9266 11.9656 63.0801 12.5029C62.2335 13.0406 61.5947 13.766 61.1652 14.6796C60.7353 15.5935 60.5205 16.6282 60.5205 17.7831C60.5205 18.9659 60.7552 20.0343 61.2255 20.9874C61.6958 21.9413 62.3746 22.6942 63.2611 23.2448C64.148 23.7959 65.169 24.071 66.3247 24.071C67.3993 24.071 68.4136 23.7892 69.3679 23.2244C70.3214 22.6601 71.0673 21.8947 71.605 20.9271L75.1776 22.9747C74.1296 24.6141 73.0571 25.998 71.061 27.1546ZM92.7726 8.65349C94.3708 9.58036 95.6273 10.8502 96.5413 12.4625C97.4544 14.0748 97.9118 15.8886 97.9118 17.9042C97.9118 19.8928 97.4544 21.6924 96.5413 23.3052C95.6273 24.9175 94.3708 26.1873 92.7726 27.1142C91.1736 28.0415 89.3665 28.5047 87.3513 28.5047C85.3356 28.5047 83.5281 28.0415 81.9299 27.1142C80.3305 26.1873 79.0811 24.9175 78.1813 23.3052C77.2806 21.6924 76.8307 19.8928 76.8307 17.9042C76.8307 15.8886 77.2806 14.0748 78.1813 12.4625C79.0811 10.8502 80.3305 9.58036 81.9299 8.65349C83.5281 7.72622 85.3356 7.26257 87.3513 7.26257C89.3665 7.26257 91.1736 7.72622 92.7726 8.65349ZM84.4088 12.4825C83.5756 13.0065 82.9238 13.739 82.4539 14.6796C81.9832 15.6206 81.7485 16.6948 81.7485 17.9042C81.7485 19.0866 81.9832 20.1479 82.4539 21.0885C82.9238 22.0291 83.5756 22.7612 84.4088 23.2852C85.2412 23.8092 86.2226 24.071 87.3513 24.071C88.4796 24.071 89.4672 23.8092 90.3137 23.2852C91.1603 22.7612 91.8183 22.0291 92.289 21.0885C92.7585 20.1479 92.994 19.0866 92.994 17.9042C92.994 16.6948 92.7585 15.6206 92.289 14.6796C91.8183 13.739 91.1603 13.0065 90.3137 12.4825C89.4672 11.9585 88.4796 11.6967 87.3513 11.6967C86.2226 11.6967 85.2412 11.9585 84.4088 12.4825ZM117.245 28.2633V25.079C116.6 26.154 115.666 26.9935 114.444 27.5982C113.221 28.2025 111.817 28.5047 110.232 28.5047C108.243 28.5047 106.523 28.0352 105.072 27.0942C103.621 26.154 102.513 24.8772 101.747 23.2648C100.981 21.6521 100.598 19.8658 100.598 17.9042C100.598 15.9694 100.981 14.1955 101.747 12.5832C102.513 10.9713 103.627 9.68108 105.092 8.71384C106.557 7.74661 108.283 7.26257 110.272 7.26257C111.83 7.26257 113.201 7.5589 114.383 8.14907C115.565 8.7409 116.439 9.54706 117.003 10.568V0.0478516H121.961V28.2633H117.245ZM114.222 23.3256C115.109 22.8012 115.794 22.0695 116.278 21.1285C116.762 20.1883 117.003 19.1133 117.003 17.9042C117.003 16.6948 116.762 15.6135 116.278 14.6592C115.794 13.7057 115.109 12.9661 114.222 12.4425C113.335 11.9181 112.314 11.6563 111.159 11.6563C110.003 11.6563 108.995 11.9323 108.136 12.4825C107.275 13.0339 106.624 13.7793 106.181 14.7199C105.737 15.6605 105.516 16.7218 105.516 17.9042C105.516 19.1133 105.75 20.1883 106.221 21.1285C106.691 22.0695 107.356 22.8012 108.216 23.3256C109.076 23.8496 110.07 24.1114 111.199 24.1114C112.327 24.1114 113.335 23.8496 114.222 23.3256ZM144.56 17.4606C144.56 14.1822 143.753 11.663 142.141 9.90291C140.529 8.14282 138.312 7.26257 135.49 7.26257C133.394 7.26257 131.56 7.74661 129.988 8.71384C128.416 9.68066 127.207 10.9913 126.361 12.644C125.514 14.2967 125.091 16.1304 125.091 18.146C125.091 20.1608 125.514 21.9551 126.361 23.527C127.207 25.099 128.409 26.3222 129.968 27.1949C131.526 28.0685 133.34 28.5047 135.41 28.5047C137.183 28.5047 138.782 28.1763 140.206 27.5175C141.63 26.8591 142.893 25.8852 143.995 24.595L140.474 22.5594C139.199 23.6748 137.645 24.2325 135.813 24.2325C133.931 24.2325 132.473 23.6748 131.44 22.5594C130.731 21.7965 130.272 20.7918 130.048 19.5565H144.56V17.4606ZM130.027 15.9694C130.223 14.7907 130.63 13.8135 131.258 13.0468C132.171 11.9323 133.501 11.3742 135.249 11.3742C136.726 11.3742 137.828 11.7774 138.554 12.5832C139.279 13.3894 139.655 14.5181 139.682 15.9694H130.027ZM0.110352 11.8499H14.3342L0.110352 20.0618V28.2633H17.8781V24.1705H3.64509L17.8781 15.9531V7.74661H0.110352V11.8499Z" fill="#232323"/>
</svg>
