<?xml version="1.0" encoding="UTF-8"?>
<svg xmlns="http://www.w3.org/2000/svg" id="Layer_3" data-name="Layer 3" viewBox="0 0 1659.69 2007.58">
  <defs>
    <style>.cls-1{opacity:0.75;}.cls-2{fill:#ccc;}</style>
  </defs>
  <title>svg khung luoi</title>
  <g class="cls-1">
    <polygon class="cls-2" points="10.41 0 10.41 1007.76 2 1007.87 2 0 10.41 0"></polygon>
    <rect class="cls-2" x="166.71" y="0.52" width="8.42" height="1006.82"></rect>
    <rect class="cls-2" x="331.43" y="0.95" width="8.41" height="1005.97"></rect>
    <polygon class="cls-2" points="504.56 1.47 504.56 1006.5 496.15 1006.5 496.15 1.37 504.56 1.47"></polygon>
    <rect class="cls-2" x="660.87" y="1.9" width="8.52" height="1010.6"></rect>
    <polygon class="cls-2" points="834.1 2.42 834.1 1005.55 825.58 1005.66 825.58 2.31 834.1 2.42"></polygon>
    <rect class="cls-2" x="990.41" y="2.84" width="8.41" height="1002.29"></rect>
    <polygon class="cls-2" points="1657.69 4.74 1657.69 13.15 1649.28 13.04 1643.49 13.04 1492.97 12.62 1484.56 12.62 1328.26 12.2 1319.84 12.1 1163.54 11.67 1155.12 11.67 998.82 11.25 990.4 11.25 834.1 10.83 825.58 10.73 669.39 10.31 660.87 10.31 504.56 9.89 496.15 9.78 339.85 9.36 331.43 9.36 175.13 8.94 166.71 8.94 13.14 8.52 10.41 8.41 2 8.41 2 0 10.41 0 166.71 0.52 175.13 0.52 331.43 0.94 339.85 0.94 496.15 1.37 504.56 1.47 660.87 1.9 669.39 1.9 825.58 2.31 834.1 2.42 990.4 2.84 998.82 2.84 1155.12 3.26 1163.54 3.26 1319.84 3.68 1328.26 3.79 1484.56 4.21 1492.97 4.21 1649.28 4.63 1657.37 4.63 1657.69 4.74"></polygon>
    <polygon class="cls-2" points="1657.69 217.52 1657.69 226.04 1649.28 226.04 1492.97 225.72 1484.56 225.62 1328.26 225.3 1291.96 225.3 1163.54 224.99 1155.12 224.99 998.82 224.67 990.4 224.67 834.1 224.36 825.58 224.25 669.39 223.94 660.87 223.94 504.56 223.62 496.15 223.62 370.14 223.3 339.85 223.3 331.43 223.2 175.13 222.88 166.71 222.88 10.41 222.57 2 222.57 2 214.15 10.41 214.15 166.71 214.47 175.13 214.47 331.43 214.78 339.85 214.78 356.04 214.89 496.15 215.1 504.56 215.21 660.87 215.52 669.39 215.52 825.58 215.84 834.1 215.84 990.4 216.15 998.82 216.15 1155.12 216.47 1163.54 216.47 1305.95 216.78 1322.26 216.78 1328.26 216.89 1484.56 217.2 1492.97 217.2 1649.28 217.52 1657.69 217.52"></polygon>
    <polygon class="cls-2" points="1657.69 407.16 1657.69 415.58 1649.28 415.58 1492.97 415.47 1484.56 415.47 1328.26 415.37 1163.54 415.37 1155.12 415.26 977.36 415.26 834.1 415.16 825.58 415.16 688.74 415.05 504.56 415.05 496.15 414.95 331.43 414.95 175.13 414.84 166.71 414.84 10.41 414.74 2 414.74 2 406.32 10.41 406.32 166.71 406.43 175.13 406.43 331.43 406.53 496.15 406.53 504.56 406.64 674.75 406.64 825.58 406.74 834.1 406.74 990.4 406.85 1155.12 406.85 1163.54 406.95 1328.26 406.95 1484.56 407.06 1492.97 407.06 1649.28 407.16 1657.69 407.16"></polygon>
    <polygon class="cls-2" points="1657.69 601.65 1657.69 610.17 1649.28 610.17 1492.97 610.27 1319.84 610.27 1163.54 610.38 834.1 610.38 825.58 610.48 496.15 610.48 339.85 610.59 166.71 610.59 10.41 610.7 2 610.7 2 602.28 10.41 602.28 166.71 602.17 339.85 602.17 496.15 602.07 669.39 602.07 684.22 601.96 834.1 601.96 982.52 601.86 1163.54 601.86 1319.84 601.75 1492.97 601.75 1649.28 601.65 1657.69 601.65"></polygon>
    <polygon class="cls-2" points="1657.69 796.87 1657.69 805.28 1649.28 805.28 1492.97 805.6 1484.56 805.6 1338.03 805.92 1319.84 805.92 1163.54 806.23 1155.12 806.23 998.82 806.55 990.4 806.55 834.1 806.86 825.58 806.86 669.39 807.18 660.87 807.18 504.56 807.49 496.15 807.49 343.43 807.81 327.01 807.81 175.13 808.12 166.71 808.12 10.41 808.44 2 808.44 2 799.92 10.41 799.92 166.71 799.6 175.13 799.6 331.43 799.29 357.52 799.29 496.15 798.97 504.56 798.97 660.87 798.66 669.39 798.66 825.58 798.45 834.1 798.34 990.4 798.13 998.82 798.13 1155.12 797.82 1163.54 797.82 1307.43 797.5 1328.26 797.5 1484.56 797.18 1492.97 797.18 1649.28 796.87 1657.69 796.87"></polygon>
    <polygon class="cls-2" points="1657.69 994.93 1657.69 1003.35 1649.28 1003.35 1492.97 1003.77 1484.56 1003.87 1328.26 1004.29 1319.84 1004.29 1163.54 1004.71 1155.12 1004.71 998.82 1005.13 990.4 1005.13 834.1 1005.55 825.58 1005.66 669.39 1005.98 660.87 1006.08 504.56 1006.5 496.15 1006.5 339.85 1006.92 331.43 1006.92 175.13 1007.34 166.71 1007.34 12.2 1007.76 10.41 1007.76 2 1007.87 2 999.34 9.88 999.24 26.29 999.24 166.71 998.82 175.13 998.82 331.43 998.4 339.85 998.4 496.15 997.98 504.56 997.98 660.87 997.56 669.39 997.56 825.58 997.14 834.1 997.14 990.4 996.72 998.82 996.72 1155.12 996.29 1163.54 996.29 1319.84 995.88 1328.26 995.77 1484.56 995.46 1492.97 995.35 1635.6 995.03 1649.28 994.93 1657.69 994.93"></polygon>
    <rect class="cls-2" x="1155.12" y="3.26" width="8.41" height="1001.45"></rect>
    <polygon class="cls-2" points="1328.26 3.79 1328.26 1004.29 1319.84 1004.29 1319.84 3.68 1328.26 3.79"></polygon>
    <polygon class="cls-2" points="1492.97 4.21 1492.97 1003.77 1484.56 1003.87 1484.56 4.21 1492.97 4.21"></polygon>
    <polygon class="cls-2" points="1657.69 4.53 1657.69 1003.35 1649.28 1003.35 1649.28 4.63 1657.37 4.63 1657.69 4.53"></polygon>
    <polygon class="cls-2" points="1657.69 998.3 1657.69 1003.35 1649.49 1003.35 1649.28 1003.24 1635.6 995.03 1492.97 909.2 1484.56 904.05 1328.26 810.01 1321.41 805.92 1319.84 804.97 1307.43 797.5 1163.54 710.83 1155.12 705.78 998.82 611.75 996.61 610.38 990.4 606.7 982.52 601.86 834.1 512.56 833.26 512.03 825.58 507.51 825.05 507.19 672.12 415.05 669.39 413.48 660.87 408.32 658.13 406.64 504.56 314.29 496.15 309.24 353.41 223.3 339.85 215.1 339.42 214.78 339.32 214.78 331.43 210.05 175.13 116.02 166.71 110.86 10.41 16.83 2 11.78 2 1.79 10.41 6.84 13.14 8.52 166.71 100.87 175.13 105.92 331.43 200.06 339.85 205.11 356.04 214.89 370.14 223.3 496.15 299.14 504.56 304.19 660.87 398.33 669.39 403.48 674.75 406.64 688.74 415.05 825.58 497.41 833.37 502.15 834.1 502.56 841.57 507.09 990.4 596.71 998.82 601.75 999.14 601.86 1013.23 610.38 1155.12 695.79 1163.54 700.84 1319.84 794.98 1324.04 797.5 1328.26 800.02 1338.03 805.92 1484.56 894.06 1492.97 899.11 1649.28 993.25 1652.22 994.93 1657.69 998.3"></polygon>
    <polygon class="cls-2" points="1659.69 13.15 1657.69 14.3 1649.28 19.35 1492.97 113.7 1484.56 118.86 1328.26 213.21 1322.26 216.78 1322.15 216.78 1319.84 218.25 1308.16 225.3 1163.54 312.6 1155.12 317.76 1007.55 406.85 998.82 412.11 993.56 415.26 990.4 417.16 841.57 507.09 834.1 511.5 833.26 512.03 825.58 516.66 684.22 601.96 670.23 610.48 669.39 611.01 660.87 616.16 504.56 710.51 496.15 715.56 357.52 799.29 343.43 807.81 339.85 809.91 331.43 815.07 175.13 909.41 166.71 914.46 26.29 999.24 12.2 1007.76 10.41 1008.82 10.41 1007.76 2 1007.87 2 1004.08 9.88 999.24 10.41 999.03 166.71 904.68 175.13 899.53 327.01 807.81 331.43 805.18 339.85 800.13 341.21 799.29 496.15 705.78 504.56 700.63 653.92 610.48 660.87 606.28 667.91 602.07 669.39 601.12 825.05 507.19 825.58 506.88 833.37 502.15 834.1 501.73 977.36 415.26 990.4 407.38 991.25 406.85 998.82 402.22 1155.12 307.87 1163.54 302.82 1291.96 225.3 1292.07 225.3 1305.95 216.78 1319.84 208.47 1328.26 203.32 1484.56 108.97 1492.97 103.92 1643.49 13.04 1649.28 9.57 1657.37 4.63 1657.69 4.53 1657.69 13.15 1659.69 13.15"></polygon>
  </g>
  <g class="cls-1">
    <polygon class="cls-2" points="8.42 995.09 8.42 2002.85 0 2002.95 0 995.09 8.42 995.09"></polygon>
    <rect class="cls-2" x="164.72" y="995.61" width="8.42" height="1006.82"></rect>
    <rect class="cls-2" x="329.44" y="996.03" width="8.41" height="1005.97"></rect>
    <polygon class="cls-2" points="502.57 996.56 502.57 2001.59 494.15 2001.59 494.15 996.46 502.57 996.56"></polygon>
    <rect class="cls-2" x="658.87" y="996.98" width="8.52" height="1010.6"></rect>
    <polygon class="cls-2" points="832.11 997.51 832.11 2000.64 823.59 2000.75 823.59 997.4 832.11 997.51"></polygon>
    <rect class="cls-2" x="988.41" y="997.93" width="8.41" height="1002.29"></rect>
    <polygon class="cls-2" points="1655.69 999.82 1655.69 1008.24 1647.28 1008.13 1641.49 1008.13 1490.97 1007.71 1482.56 1007.71 1326.26 1007.29 1317.84 1007.18 1161.54 1006.76 1153.13 1006.76 996.82 1006.34 988.41 1006.34 832.11 1005.92 823.59 1005.82 667.39 1005.4 658.87 1005.4 502.57 1004.98 494.15 1004.87 337.85 1004.45 329.44 1004.45 173.14 1004.03 164.72 1004.03 11.15 1003.61 8.42 1003.5 0 1003.5 0 995.09 8.42 995.09 164.72 995.61 173.14 995.61 329.44 996.03 337.85 996.03 494.15 996.46 502.57 996.56 658.87 996.98 667.39 996.98 823.59 997.4 832.11 997.51 988.41 997.93 996.82 997.93 1153.13 998.35 1161.54 998.35 1317.84 998.77 1326.26 998.87 1482.56 999.29 1490.97 999.29 1647.28 999.72 1655.38 999.72 1655.69 999.82"></polygon>
    <polygon class="cls-2" points="1655.69 1212.61 1655.69 1221.13 1647.28 1221.13 1490.97 1220.81 1482.56 1220.71 1326.26 1220.39 1289.97 1220.39 1161.54 1220.08 1153.13 1220.08 996.82 1219.76 988.41 1219.76 832.11 1219.45 823.59 1219.34 667.39 1219.03 658.87 1219.03 502.57 1218.71 494.15 1218.71 368.14 1218.39 337.85 1218.39 329.44 1218.29 173.14 1217.97 164.72 1217.97 8.42 1217.66 0 1217.66 0 1209.24 8.42 1209.24 164.72 1209.56 173.14 1209.56 329.44 1209.87 337.85 1209.87 354.05 1209.98 494.15 1210.19 502.57 1210.29 658.87 1210.61 667.39 1210.61 823.59 1210.93 832.11 1210.93 988.41 1211.24 996.82 1211.24 1153.13 1211.56 1161.54 1211.56 1303.96 1211.87 1320.26 1211.87 1326.26 1211.98 1482.56 1212.29 1490.97 1212.29 1647.28 1212.61 1655.69 1212.61"></polygon>
    <polygon class="cls-2" points="1655.69 1402.25 1655.69 1410.67 1647.28 1410.67 1490.97 1410.56 1482.56 1410.56 1326.26 1410.46 1161.54 1410.46 1153.13 1410.35 975.37 1410.35 832.11 1410.24 823.59 1410.24 686.74 1410.14 502.57 1410.14 494.15 1410.04 329.44 1410.04 173.14 1409.93 164.72 1409.93 8.42 1409.83 0 1409.83 0 1401.41 8.42 1401.41 164.72 1401.52 173.14 1401.52 329.44 1401.62 494.15 1401.62 502.57 1401.73 672.76 1401.73 823.59 1401.83 832.11 1401.83 988.41 1401.94 1153.13 1401.94 1161.54 1402.04 1326.26 1402.04 1482.56 1402.15 1490.97 1402.15 1647.28 1402.25 1655.69 1402.25"></polygon>
    <polygon class="cls-2" points="1655.69 1596.74 1655.69 1605.26 1647.28 1605.26 1490.97 1605.36 1317.84 1605.36 1161.54 1605.47 832.11 1605.47 823.59 1605.57 494.15 1605.57 337.85 1605.68 164.72 1605.68 8.42 1605.78 0 1605.78 0 1597.37 8.42 1597.37 164.72 1597.26 337.85 1597.26 494.15 1597.16 667.39 1597.16 682.22 1597.05 832.11 1597.05 980.52 1596.94 1161.54 1596.94 1317.84 1596.84 1490.97 1596.84 1647.28 1596.74 1655.69 1596.74"></polygon>
    <polygon class="cls-2" points="1655.69 1791.96 1655.69 1800.37 1647.28 1800.37 1490.97 1800.69 1482.56 1800.69 1336.04 1801.01 1317.84 1801.01 1161.54 1801.32 1153.13 1801.32 996.82 1801.64 988.41 1801.64 832.11 1801.95 823.59 1801.95 667.39 1802.27 658.87 1802.27 502.57 1802.58 494.15 1802.58 341.43 1802.89 325.01 1802.89 173.14 1803.21 164.72 1803.21 8.42 1803.53 0 1803.53 0 1795.01 8.42 1795.01 164.72 1794.69 173.14 1794.69 329.44 1794.38 355.52 1794.38 494.15 1794.06 502.57 1794.06 658.87 1793.75 667.39 1793.75 823.59 1793.54 832.11 1793.43 988.41 1793.22 996.82 1793.22 1153.13 1792.91 1161.54 1792.91 1305.43 1792.59 1326.26 1792.59 1482.56 1792.27 1490.97 1792.27 1647.28 1791.96 1655.69 1791.96"></polygon>
    <polygon class="cls-2" points="1655.69 1990.02 1655.69 1998.43 1647.28 1998.43 1490.97 1998.86 1482.56 1998.96 1326.26 1999.38 1317.84 1999.38 1161.54 1999.8 1153.13 1999.8 996.82 2000.22 988.41 2000.22 832.11 2000.64 823.59 2000.75 667.39 2001.06 658.87 2001.17 502.57 2001.59 494.15 2001.59 337.85 2002.01 329.44 2002.01 173.14 2002.43 164.72 2002.43 10.21 2002.85 8.42 2002.85 0 2002.95 0 1994.43 7.89 1994.33 24.3 1994.33 164.72 1993.91 173.14 1993.91 329.44 1993.49 337.85 1993.49 494.15 1993.07 502.57 1993.07 658.87 1992.65 667.39 1992.65 823.59 1992.22 832.11 1992.22 988.41 1991.8 996.82 1991.8 1153.13 1991.38 1161.54 1991.38 1317.84 1990.97 1326.26 1990.86 1482.56 1990.55 1490.97 1990.44 1633.6 1990.12 1647.28 1990.02 1655.69 1990.02"></polygon>
    <rect class="cls-2" x="1153.13" y="998.35" width="8.41" height="1001.45"></rect>
    <polygon class="cls-2" points="1326.26 998.87 1326.26 1999.38 1317.84 1999.38 1317.84 998.77 1326.26 998.87"></polygon>
    <polygon class="cls-2" points="1490.97 999.29 1490.97 1998.86 1482.56 1998.96 1482.56 999.29 1490.97 999.29"></polygon>
    <polygon class="cls-2" points="1655.69 999.61 1655.69 1998.43 1647.28 1998.43 1647.28 999.72 1655.38 999.72 1655.69 999.61"></polygon>
    <polygon class="cls-2" points="1655.69 1993.39 1655.69 1998.43 1647.49 1998.43 1647.28 1998.33 1633.6 1990.12 1490.97 1904.29 1482.56 1899.14 1326.26 1805.1 1319.42 1801.01 1317.84 1800.06 1305.43 1792.59 1161.54 1705.92 1153.13 1700.87 996.82 1606.84 994.61 1605.47 988.41 1601.79 980.52 1596.94 832.11 1507.65 831.27 1507.12 823.59 1502.6 823.06 1502.28 670.13 1410.14 667.39 1408.57 658.87 1403.41 656.14 1401.73 502.57 1309.38 494.15 1304.33 351.42 1218.39 337.85 1210.19 337.43 1209.87 337.33 1209.87 329.44 1205.14 173.14 1111.1 164.72 1105.95 8.42 1011.92 0 1006.87 0 996.88 8.42 1001.92 11.15 1003.61 164.72 1095.96 173.14 1101.01 329.44 1195.15 337.85 1200.2 354.05 1209.98 368.14 1218.39 494.15 1294.23 502.57 1299.28 658.87 1393.42 667.39 1398.57 672.76 1401.73 686.74 1410.14 823.59 1492.5 831.37 1497.24 832.11 1497.65 839.58 1502.18 988.41 1591.79 996.82 1596.84 997.14 1596.94 1011.23 1605.47 1153.13 1690.88 1161.54 1695.92 1317.84 1790.07 1322.05 1792.59 1326.26 1795.11 1336.04 1801.01 1482.56 1889.15 1490.97 1894.2 1647.28 1988.34 1650.22 1990.02 1655.69 1993.39"></polygon>
    <polygon class="cls-2" points="1657.69 1008.24 1655.69 1009.39 1647.28 1014.44 1490.97 1108.79 1482.56 1113.94 1326.26 1208.3 1320.26 1211.87 1320.16 1211.87 1317.84 1213.35 1306.17 1220.39 1161.54 1307.69 1153.13 1312.85 1005.55 1401.94 996.82 1407.2 991.56 1410.35 988.41 1412.25 839.58 1502.18 832.11 1506.59 831.27 1507.12 823.59 1511.75 682.22 1597.05 668.23 1605.57 667.39 1606.1 658.87 1611.25 502.57 1705.6 494.15 1710.65 355.52 1794.38 341.43 1802.89 337.85 1805 329.44 1810.16 173.14 1904.5 164.72 1909.55 24.3 1994.33 10.21 2002.85 8.42 2003.9 8.42 2002.85 0 2002.95 0 1999.17 7.89 1994.33 8.42 1994.12 164.72 1899.77 173.14 1894.62 325.01 1802.89 329.44 1800.27 337.85 1795.22 339.22 1794.38 494.15 1700.87 502.57 1695.71 651.93 1605.57 658.87 1601.37 665.92 1597.16 667.39 1596.21 823.06 1502.28 823.59 1501.97 831.37 1497.24 832.11 1496.82 975.37 1410.35 988.41 1402.46 989.25 1401.94 996.82 1397.31 1153.13 1302.96 1161.54 1297.91 1289.97 1220.39 1290.07 1220.39 1303.96 1211.87 1317.84 1203.56 1326.26 1198.41 1482.56 1104.06 1490.97 1099.01 1641.49 1008.13 1647.28 1004.66 1655.38 999.72 1655.69 999.61 1655.69 1008.24 1657.69 1008.24"></polygon>
  </g>
</svg>
