<svg width="44" height="112" viewBox="0 0 44 112" fill="none" xmlns="http://www.w3.org/2000/svg">
<path d="M42.8887 6.57144L42.8887 1.08496L38.6041 1.08496L38.6041 6.57144L42.8887 6.57144Z" stroke="#CCB4FB" stroke-width="0.711458" stroke-miterlimit="10"/>
<path d="M42.8887 12.0578L42.8887 6.57129L38.6041 6.57129L38.6041 12.0578L42.8887 12.0578Z" stroke="#CCB4FB" stroke-width="0.711458" stroke-miterlimit="10"/>
<path d="M42.8887 17.5451L42.8887 12.0586L38.6041 12.0586L38.6041 17.5451L42.8887 17.5451Z" stroke="#CCB4FB" stroke-width="0.711458" stroke-miterlimit="10"/>
<path d="M42.8887 23.0314L42.8887 17.5449L38.6041 17.5449L38.6041 23.0314L42.8887 23.0314Z" stroke="#CCB4FB" stroke-width="0.711458" stroke-miterlimit="10"/>
<path d="M42.8887 28.5187L42.8887 23.0322L38.6041 23.0322L38.6041 28.5187L42.8887 28.5187Z" stroke="#CCB4FB" stroke-width="0.711458" stroke-miterlimit="10"/>
<path d="M42.8887 34.005L42.8887 28.5186L38.6041 28.5186L38.6041 34.005L42.8887 34.005Z" stroke="#CCB4FB" stroke-width="0.711458" stroke-miterlimit="10"/>
<path d="M42.8887 39.4914L42.8887 34.0049L38.6041 34.0049L38.6041 39.4914L42.8887 39.4914Z" stroke="#CCB4FB" stroke-width="0.711458" stroke-miterlimit="10"/>
<path d="M42.8887 44.9767L42.8887 39.4902L38.6041 39.4902L38.6041 44.9767L42.8887 44.9767Z" stroke="#CCB4FB" stroke-width="0.711458" stroke-miterlimit="10"/>
<path d="M42.8887 50.464L42.8887 44.9775L38.6041 44.9775L38.6041 50.464L42.8887 50.464Z" stroke="#CCB4FB" stroke-width="0.711458" stroke-miterlimit="10"/>
<path d="M42.8887 55.9503L42.8887 50.4639L38.6041 50.4639L38.6041 55.9503L42.8887 55.9503Z" stroke="#CCB4FB" stroke-width="0.711458" stroke-miterlimit="10"/>
<path d="M38.6055 6.57144L38.6055 1.08496L34.3209 1.08496L34.3209 6.57144L38.6055 6.57144Z" stroke="#CCB4FB" stroke-width="0.711458" stroke-miterlimit="10"/>
<path d="M38.6055 12.0578L38.6055 6.57129L34.3209 6.57129L34.3209 12.0578L38.6055 12.0578Z" stroke="#CCB4FB" stroke-width="0.711458" stroke-miterlimit="10"/>
<path d="M38.6055 17.5451L38.6055 12.0586L34.3209 12.0586L34.3209 17.5451L38.6055 17.5451Z" stroke="#CCB4FB" stroke-width="0.711458" stroke-miterlimit="10"/>
<path d="M38.6055 23.0314L38.6055 17.5449L34.3209 17.5449L34.3209 23.0314L38.6055 23.0314Z" stroke="#CCB4FB" stroke-width="0.711458" stroke-miterlimit="10"/>
<path d="M38.6055 28.5187L38.6055 23.0322L34.3209 23.0322L34.3209 28.5187L38.6055 28.5187Z" stroke="#CCB4FB" stroke-width="0.711458" stroke-miterlimit="10"/>
<path d="M38.6055 34.005L38.6055 28.5186L34.3209 28.5186L34.3209 34.005L38.6055 34.005Z" stroke="#CCB4FB" stroke-width="0.711458" stroke-miterlimit="10"/>
<path d="M38.6055 39.4914L38.6055 34.0049L34.3209 34.0049L34.3209 39.4914L38.6055 39.4914Z" stroke="#CCB4FB" stroke-width="0.711458" stroke-miterlimit="10"/>
<path d="M38.6055 44.9767L38.6055 39.4902L34.3209 39.4902L34.3209 44.9767L38.6055 44.9767Z" stroke="#CCB4FB" stroke-width="0.711458" stroke-miterlimit="10"/>
<path d="M38.6055 50.464L38.6055 44.9775L34.3209 44.9775L34.3209 50.464L38.6055 50.464Z" stroke="#CCB4FB" stroke-width="0.711458" stroke-miterlimit="10"/>
<path d="M38.6055 55.9503L38.6055 50.4639L34.3209 50.4639L34.3209 55.9503L38.6055 55.9503Z" stroke="#CCB4FB" stroke-width="0.711458" stroke-miterlimit="10"/>
<path d="M34.3203 6.57144L34.3203 1.08496L30.0357 1.08496L30.0357 6.57144L34.3203 6.57144Z" stroke="#CCB4FB" stroke-width="0.711458" stroke-miterlimit="10"/>
<path d="M34.3203 12.0578L34.3203 6.57129L30.0357 6.57129L30.0357 12.0578L34.3203 12.0578Z" stroke="#CCB4FB" stroke-width="0.711458" stroke-miterlimit="10"/>
<path d="M34.3203 17.5451L34.3203 12.0586L30.0357 12.0586L30.0357 17.5451L34.3203 17.5451Z" stroke="#CCB4FB" stroke-width="0.711458" stroke-miterlimit="10"/>
<path d="M34.3203 23.0314L34.3203 17.5449L30.0357 17.5449L30.0357 23.0314L34.3203 23.0314Z" stroke="#CCB4FB" stroke-width="0.711458" stroke-miterlimit="10"/>
<path d="M34.3203 28.5187L34.3203 23.0322L30.0357 23.0322L30.0357 28.5187L34.3203 28.5187Z" stroke="#CCB4FB" stroke-width="0.711458" stroke-miterlimit="10"/>
<path d="M34.3203 34.005L34.3203 28.5186L30.0357 28.5186L30.0357 34.005L34.3203 34.005Z" stroke="#CCB4FB" stroke-width="0.711458" stroke-miterlimit="10"/>
<path d="M34.3203 39.4914L34.3203 34.0049L30.0357 34.0049L30.0357 39.4914L34.3203 39.4914Z" stroke="#CCB4FB" stroke-width="0.711458" stroke-miterlimit="10"/>
<path d="M34.3203 44.9767L34.3203 39.4902L30.0357 39.4902L30.0357 44.9767L34.3203 44.9767Z" stroke="#CCB4FB" stroke-width="0.711458" stroke-miterlimit="10"/>
<path d="M34.3203 50.464L34.3203 44.9775L30.0357 44.9775L30.0357 50.464L34.3203 50.464Z" stroke="#CCB4FB" stroke-width="0.711458" stroke-miterlimit="10"/>
<path d="M34.3203 55.9503L34.3203 50.4639L30.0357 50.4639L30.0357 55.9503L34.3203 55.9503Z" stroke="#CCB4FB" stroke-width="0.711458" stroke-miterlimit="10"/>
<path d="M30.0352 6.57144L30.0352 1.08496L25.7506 1.08496L25.7506 6.57144L30.0352 6.57144Z" stroke="#CCB4FB" stroke-width="0.711458" stroke-miterlimit="10"/>
<path d="M30.0352 12.0578L30.0352 6.57129L25.7506 6.57129L25.7506 12.0578L30.0352 12.0578Z" stroke="#CCB4FB" stroke-width="0.711458" stroke-miterlimit="10"/>
<path d="M30.0352 17.5451L30.0352 12.0586L25.7506 12.0586L25.7506 17.5451L30.0352 17.5451Z" stroke="#CCB4FB" stroke-width="0.711458" stroke-miterlimit="10"/>
<path d="M30.0352 23.0314L30.0352 17.5449L25.7506 17.5449L25.7506 23.0314L30.0352 23.0314Z" stroke="#CCB4FB" stroke-width="0.711458" stroke-miterlimit="10"/>
<path d="M30.0352 28.5187L30.0352 23.0322L25.7506 23.0322L25.7506 28.5187L30.0352 28.5187Z" stroke="#CCB4FB" stroke-width="0.711458" stroke-miterlimit="10"/>
<path d="M30.0352 34.005L30.0352 28.5186L25.7506 28.5186L25.7506 34.005L30.0352 34.005Z" stroke="#CCB4FB" stroke-width="0.711458" stroke-miterlimit="10"/>
<path d="M30.0352 39.4914L30.0352 34.0049L25.7506 34.0049L25.7506 39.4914L30.0352 39.4914Z" stroke="#CCB4FB" stroke-width="0.711458" stroke-miterlimit="10"/>
<path d="M30.0352 44.9767L30.0352 39.4902L25.7506 39.4902L25.7506 44.9767L30.0352 44.9767Z" stroke="#CCB4FB" stroke-width="0.711458" stroke-miterlimit="10"/>
<path d="M30.0352 50.464L30.0352 44.9775L25.7506 44.9775L25.7506 50.464L30.0352 50.464Z" stroke="#CCB4FB" stroke-width="0.711458" stroke-miterlimit="10"/>
<path d="M30.0352 55.9503L30.0352 50.4639L25.7506 50.4639L25.7506 55.9503L30.0352 55.9503Z" stroke="#CCB4FB" stroke-width="0.711458" stroke-miterlimit="10"/>
<path d="M25.75 6.57144L25.75 1.08496L21.4654 1.08496L21.4654 6.57144L25.75 6.57144Z" stroke="#CCB4FB" stroke-width="0.711458" stroke-miterlimit="10"/>
<path d="M25.75 12.0578L25.75 6.57129L21.4654 6.57129L21.4654 12.0578L25.75 12.0578Z" stroke="#CCB4FB" stroke-width="0.711458" stroke-miterlimit="10"/>
<path d="M25.75 17.5451L25.75 12.0586L21.4654 12.0586L21.4654 17.5451L25.75 17.5451Z" stroke="#CCB4FB" stroke-width="0.711458" stroke-miterlimit="10"/>
<path d="M25.75 23.0314L25.75 17.5449L21.4654 17.5449L21.4654 23.0314L25.75 23.0314Z" stroke="#CCB4FB" stroke-width="0.711458" stroke-miterlimit="10"/>
<path d="M25.75 28.5187L25.75 23.0322L21.4654 23.0322L21.4654 28.5187L25.75 28.5187Z" stroke="#CCB4FB" stroke-width="0.711458" stroke-miterlimit="10"/>
<path d="M25.75 34.005L25.75 28.5186L21.4654 28.5186L21.4654 34.005L25.75 34.005Z" stroke="#CCB4FB" stroke-width="0.711458" stroke-miterlimit="10"/>
<path d="M25.75 39.4914L25.75 34.0049L21.4654 34.0049L21.4654 39.4914L25.75 39.4914Z" stroke="#CCB4FB" stroke-width="0.711458" stroke-miterlimit="10"/>
<path d="M25.75 44.9767L25.75 39.4902L21.4654 39.4902L21.4654 44.9767L25.75 44.9767Z" stroke="#CCB4FB" stroke-width="0.711458" stroke-miterlimit="10"/>
<path d="M25.75 50.464L25.75 44.9775L21.4654 44.9775L21.4654 50.464L25.75 50.464Z" stroke="#CCB4FB" stroke-width="0.711458" stroke-miterlimit="10"/>
<path d="M25.75 55.9503L25.75 50.4639L21.4654 50.4639L21.4654 55.9503L25.75 55.9503Z" stroke="#CCB4FB" stroke-width="0.711458" stroke-miterlimit="10"/>
<path d="M21.4668 6.57144L21.4668 1.08496L17.1822 1.08496L17.1822 6.57144L21.4668 6.57144Z" stroke="#CCB4FB" stroke-width="0.711458" stroke-miterlimit="10"/>
<path d="M21.4668 12.0578L21.4668 6.57129L17.1822 6.57129L17.1822 12.0578L21.4668 12.0578Z" stroke="#CCB4FB" stroke-width="0.711458" stroke-miterlimit="10"/>
<path d="M21.4668 17.5451L21.4668 12.0586L17.1822 12.0586L17.1822 17.5451L21.4668 17.5451Z" stroke="#CCB4FB" stroke-width="0.711458" stroke-miterlimit="10"/>
<path d="M21.4668 23.0314L21.4668 17.5449L17.1822 17.5449L17.1822 23.0314L21.4668 23.0314Z" stroke="#CCB4FB" stroke-width="0.711458" stroke-miterlimit="10"/>
<path d="M21.4668 28.5187L21.4668 23.0322L17.1822 23.0322L17.1822 28.5187L21.4668 28.5187Z" stroke="#CCB4FB" stroke-width="0.711458" stroke-miterlimit="10"/>
<path d="M21.4668 34.005L21.4668 28.5186L17.1822 28.5186L17.1822 34.005L21.4668 34.005Z" stroke="#CCB4FB" stroke-width="0.711458" stroke-miterlimit="10"/>
<path d="M21.4668 39.4914L21.4668 34.0049L17.1822 34.0049L17.1822 39.4914L21.4668 39.4914Z" stroke="#CCB4FB" stroke-width="0.711458" stroke-miterlimit="10"/>
<path d="M21.4668 44.9767L21.4668 39.4902L17.1822 39.4902L17.1822 44.9767L21.4668 44.9767Z" stroke="#CCB4FB" stroke-width="0.711458" stroke-miterlimit="10"/>
<path d="M21.4668 50.464L21.4668 44.9775L17.1822 44.9775L17.1822 50.464L21.4668 50.464Z" stroke="#CCB4FB" stroke-width="0.711458" stroke-miterlimit="10"/>
<path d="M21.4668 55.9503L21.4668 50.4639L17.1822 50.4639L17.1822 55.9503L21.4668 55.9503Z" stroke="#CCB4FB" stroke-width="0.711458" stroke-miterlimit="10"/>
<path d="M17.1797 6.57144L17.1797 1.08496L12.8951 1.08496L12.8951 6.57144L17.1797 6.57144Z" stroke="#CCB4FB" stroke-width="0.711458" stroke-miterlimit="10"/>
<path d="M17.1797 12.0578L17.1797 6.57129L12.8951 6.57129L12.8951 12.0578L17.1797 12.0578Z" stroke="#CCB4FB" stroke-width="0.711458" stroke-miterlimit="10"/>
<path d="M17.1797 17.5451L17.1797 12.0586L12.8951 12.0586L12.8951 17.5451L17.1797 17.5451Z" stroke="#CCB4FB" stroke-width="0.711458" stroke-miterlimit="10"/>
<path d="M17.1797 23.0314L17.1797 17.5449L12.8951 17.5449L12.8951 23.0314L17.1797 23.0314Z" stroke="#CCB4FB" stroke-width="0.711458" stroke-miterlimit="10"/>
<path d="M17.1797 28.5187L17.1797 23.0322L12.8951 23.0322L12.8951 28.5187L17.1797 28.5187Z" stroke="#CCB4FB" stroke-width="0.711458" stroke-miterlimit="10"/>
<path d="M17.1797 34.005L17.1797 28.5186L12.8951 28.5186L12.8951 34.005L17.1797 34.005Z" stroke="#CCB4FB" stroke-width="0.711458" stroke-miterlimit="10"/>
<path d="M17.1797 39.4914L17.1797 34.0049L12.8951 34.0049L12.8951 39.4914L17.1797 39.4914Z" stroke="#CCB4FB" stroke-width="0.711458" stroke-miterlimit="10"/>
<path d="M17.1797 44.9767L17.1797 39.4902L12.8951 39.4902L12.8951 44.9767L17.1797 44.9767Z" stroke="#CCB4FB" stroke-width="0.711458" stroke-miterlimit="10"/>
<path d="M17.1797 50.464L17.1797 44.9775L12.8951 44.9775L12.8951 50.464L17.1797 50.464Z" stroke="#CCB4FB" stroke-width="0.711458" stroke-miterlimit="10"/>
<path d="M17.1797 55.9503L17.1797 50.4639L12.8951 50.4639L12.8951 55.9503L17.1797 55.9503Z" stroke="#CCB4FB" stroke-width="0.711458" stroke-miterlimit="10"/>
<path d="M12.8984 6.57144L12.8984 1.08496L8.61384 1.08496L8.61384 6.57144L12.8984 6.57144Z" stroke="#CCB4FB" stroke-width="0.711458" stroke-miterlimit="10"/>
<path d="M12.8984 12.0578L12.8984 6.57129L8.61384 6.57129L8.61384 12.0578L12.8984 12.0578Z" stroke="#CCB4FB" stroke-width="0.711458" stroke-miterlimit="10"/>
<path d="M12.8984 17.5451L12.8984 12.0586L8.61384 12.0586L8.61384 17.5451L12.8984 17.5451Z" stroke="#CCB4FB" stroke-width="0.711458" stroke-miterlimit="10"/>
<path d="M12.8984 23.0314L12.8984 17.5449L8.61384 17.5449L8.61384 23.0314L12.8984 23.0314Z" stroke="#CCB4FB" stroke-width="0.711458" stroke-miterlimit="10"/>
<path d="M12.8984 28.5187L12.8984 23.0322L8.61384 23.0322L8.61384 28.5187L12.8984 28.5187Z" stroke="#CCB4FB" stroke-width="0.711458" stroke-miterlimit="10"/>
<path d="M12.8984 34.005L12.8984 28.5186L8.61384 28.5186L8.61384 34.005L12.8984 34.005Z" stroke="#CCB4FB" stroke-width="0.711458" stroke-miterlimit="10"/>
<path d="M12.8984 39.4914L12.8984 34.0049L8.61384 34.0049L8.61384 39.4914L12.8984 39.4914Z" stroke="#CCB4FB" stroke-width="0.711458" stroke-miterlimit="10"/>
<path d="M12.8984 44.9767L12.8984 39.4902L8.61384 39.4902L8.61384 44.9767L12.8984 44.9767Z" stroke="#CCB4FB" stroke-width="0.711458" stroke-miterlimit="10"/>
<path d="M12.8984 50.464L12.8984 44.9775L8.61384 44.9775L8.61384 50.464L12.8984 50.464Z" stroke="#CCB4FB" stroke-width="0.711458" stroke-miterlimit="10"/>
<path d="M12.8984 55.9503L12.8984 50.4639L8.61384 50.4639L8.61384 55.9503L12.8984 55.9503Z" stroke="#CCB4FB" stroke-width="0.711458" stroke-miterlimit="10"/>
<path d="M8.61328 6.57144L8.61328 1.08496L4.32868 1.08496L4.32868 6.57144L8.61328 6.57144Z" stroke="#CCB4FB" stroke-width="0.711458" stroke-miterlimit="10"/>
<path d="M8.61328 12.0578L8.61328 6.57129L4.32868 6.57129L4.32868 12.0578L8.61328 12.0578Z" stroke="#CCB4FB" stroke-width="0.711458" stroke-miterlimit="10"/>
<path d="M8.61328 17.5451L8.61328 12.0586L4.32868 12.0586L4.32868 17.5451L8.61328 17.5451Z" stroke="#CCB4FB" stroke-width="0.711458" stroke-miterlimit="10"/>
<path d="M8.61328 23.0314L8.61328 17.5449L4.32868 17.5449L4.32868 23.0314L8.61328 23.0314Z" stroke="#CCB4FB" stroke-width="0.711458" stroke-miterlimit="10"/>
<path d="M8.61328 28.5187L8.61328 23.0322L4.32868 23.0322L4.32868 28.5187L8.61328 28.5187Z" stroke="#CCB4FB" stroke-width="0.711458" stroke-miterlimit="10"/>
<path d="M8.61328 34.005L8.61328 28.5186L4.32868 28.5186L4.32868 34.005L8.61328 34.005Z" stroke="#CCB4FB" stroke-width="0.711458" stroke-miterlimit="10"/>
<path d="M8.61328 39.4914L8.61328 34.0049L4.32868 34.0049L4.32868 39.4914L8.61328 39.4914Z" stroke="#CCB4FB" stroke-width="0.711458" stroke-miterlimit="10"/>
<path d="M8.61328 44.9767L8.61328 39.4902L4.32868 39.4902L4.32868 44.9767L8.61328 44.9767Z" stroke="#CCB4FB" stroke-width="0.711458" stroke-miterlimit="10"/>
<path d="M8.61328 50.464L8.61328 44.9775L4.32868 44.9775L4.32868 50.464L8.61328 50.464Z" stroke="#CCB4FB" stroke-width="0.711458" stroke-miterlimit="10"/>
<path d="M8.61328 55.9503L8.61328 50.4639L4.32868 50.4639L4.32868 55.9503L8.61328 55.9503Z" stroke="#CCB4FB" stroke-width="0.711458" stroke-miterlimit="10"/>
<mask id="mask0_2223_7154" style="mask-type:luminance" maskUnits="userSpaceOnUse" x="0" y="1" width="43" height="110">
<path d="M42.9316 110.903L42.9316 1L0.00230026 0.999999L0.00229283 110.903L42.9316 110.903Z" fill="white"/>
</mask>
<g mask="url(#mask0_2223_7154)">
<path d="M4.32812 6.57339L4.32812 1.08691L0.0435233 1.08691L0.0435227 6.57339L4.32812 6.57339Z" stroke="#CCB4FB" stroke-width="0.711458" stroke-miterlimit="10"/>
<path d="M4.32812 12.0607L4.32812 6.57422L0.0435233 6.57422L0.0435227 12.0607L4.32812 12.0607Z" stroke="#CCB4FB" stroke-width="0.711458" stroke-miterlimit="10"/>
<path d="M4.32812 17.547L4.32812 12.0605L0.0435233 12.0605L0.0435227 17.547L4.32812 17.547Z" stroke="#CCB4FB" stroke-width="0.711458" stroke-miterlimit="10"/>
<path d="M4.32812 23.0334L4.32812 17.5469L0.0435233 17.5469L0.0435227 23.0334L4.32812 23.0334Z" stroke="#CCB4FB" stroke-width="0.711458" stroke-miterlimit="10"/>
<path d="M4.32812 28.5207L4.32812 23.0342L0.0435233 23.0342L0.0435227 28.5207L4.32812 28.5207Z" stroke="#CCB4FB" stroke-width="0.711458" stroke-miterlimit="10"/>
<path d="M4.32812 34.006L4.32812 28.5195L0.0435233 28.5195L0.0435227 34.006L4.32812 34.006Z" stroke="#CCB4FB" stroke-width="0.711458" stroke-miterlimit="10"/>
<path d="M4.32812 39.4933L4.32812 34.0068L0.0435233 34.0068L0.0435227 39.4933L4.32812 39.4933Z" stroke="#CCB4FB" stroke-width="0.711458" stroke-miterlimit="10"/>
<path d="M4.32812 44.9787L4.32812 39.4922L0.0435233 39.4922L0.0435227 44.9787L4.32812 44.9787Z" stroke="#CCB4FB" stroke-width="0.711458" stroke-miterlimit="10"/>
<path d="M4.32812 50.466L4.32812 44.9795L0.0435233 44.9795L0.0435227 50.466L4.32812 50.466Z" stroke="#CCB4FB" stroke-width="0.711458" stroke-miterlimit="10"/>
<path d="M4.32812 55.9523L4.32812 50.4658L0.0435233 50.4658L0.0435227 55.9523L4.32812 55.9523Z" stroke="#CCB4FB" stroke-width="0.711458" stroke-miterlimit="10"/>
<path d="M21.4677 55.9524L42.8906 1.08691L0.0450829 1.08691L21.4677 55.9524Z" stroke="#CCB4FB" stroke-width="0.711458" stroke-miterlimit="10"/>
<path d="M21.4677 1.08691L0.0450767 55.9524L42.8906 55.9524L21.4677 1.08691Z" stroke="#CCB4FB" stroke-width="0.711458" stroke-miterlimit="10"/>
</g>
<path d="M42.8887 61.4367L42.8887 55.9502L38.6041 55.9502L38.6041 61.4367L42.8887 61.4367Z" stroke="#CCB4FB" stroke-width="0.711458" stroke-miterlimit="10"/>
<path d="M42.8887 66.924L42.8887 61.4375L38.6041 61.4375L38.6041 66.924L42.8887 66.924Z" stroke="#CCB4FB" stroke-width="0.711458" stroke-miterlimit="10"/>
<path d="M42.8887 72.4103L42.8887 66.9238L38.6041 66.9238L38.6041 72.4103L42.8887 72.4103Z" stroke="#CCB4FB" stroke-width="0.711458" stroke-miterlimit="10"/>
<path d="M42.8887 77.8976L42.8887 72.4111L38.6041 72.4111L38.6041 77.8976L42.8887 77.8976Z" stroke="#CCB4FB" stroke-width="0.711458" stroke-miterlimit="10"/>
<path d="M42.8887 83.3839L42.8887 77.8975L38.6041 77.8975L38.6041 83.3839L42.8887 83.3839Z" stroke="#CCB4FB" stroke-width="0.711458" stroke-miterlimit="10"/>
<path d="M42.8887 88.8703L42.8887 83.3838L38.6041 83.3838L38.6041 88.8703L42.8887 88.8703Z" stroke="#CCB4FB" stroke-width="0.711458" stroke-miterlimit="10"/>
<path d="M42.8887 94.3566L42.8887 88.8701L38.6041 88.8701L38.6041 94.3566L42.8887 94.3566Z" stroke="#CCB4FB" stroke-width="0.711458" stroke-miterlimit="10"/>
<path d="M42.8887 99.8429L42.8887 94.3564L38.6041 94.3564L38.6041 99.8429L42.8887 99.8429Z" stroke="#CCB4FB" stroke-width="0.711458" stroke-miterlimit="10"/>
<path d="M42.8887 105.329L42.8887 99.8428L38.6041 99.8428L38.6041 105.329L42.8887 105.329Z" stroke="#CCB4FB" stroke-width="0.711458" stroke-miterlimit="10"/>
<path d="M42.8887 110.816L42.8887 105.329L38.6041 105.329L38.6041 110.816L42.8887 110.816Z" stroke="#CCB4FB" stroke-width="0.711458" stroke-miterlimit="10"/>
<path d="M38.6055 61.4367L38.6055 55.9502L34.3209 55.9502L34.3209 61.4367L38.6055 61.4367Z" stroke="#CCB4FB" stroke-width="0.711458" stroke-miterlimit="10"/>
<path d="M38.6055 66.924L38.6055 61.4375L34.3209 61.4375L34.3209 66.924L38.6055 66.924Z" stroke="#CCB4FB" stroke-width="0.711458" stroke-miterlimit="10"/>
<path d="M38.6055 72.4103L38.6055 66.9238L34.3209 66.9238L34.3209 72.4103L38.6055 72.4103Z" stroke="#CCB4FB" stroke-width="0.711458" stroke-miterlimit="10"/>
<path d="M38.6055 77.8976L38.6055 72.4111L34.3209 72.4111L34.3209 77.8976L38.6055 77.8976Z" stroke="#CCB4FB" stroke-width="0.711458" stroke-miterlimit="10"/>
<path d="M38.6055 83.3839L38.6055 77.8975L34.3209 77.8975L34.3209 83.3839L38.6055 83.3839Z" stroke="#CCB4FB" stroke-width="0.711458" stroke-miterlimit="10"/>
<path d="M38.6055 88.8703L38.6055 83.3838L34.3209 83.3838L34.3209 88.8703L38.6055 88.8703Z" stroke="#CCB4FB" stroke-width="0.711458" stroke-miterlimit="10"/>
<path d="M38.6055 94.3566L38.6055 88.8701L34.3209 88.8701L34.3209 94.3566L38.6055 94.3566Z" stroke="#CCB4FB" stroke-width="0.711458" stroke-miterlimit="10"/>
<path d="M38.6055 99.8429L38.6055 94.3564L34.3209 94.3564L34.3209 99.8429L38.6055 99.8429Z" stroke="#CCB4FB" stroke-width="0.711458" stroke-miterlimit="10"/>
<path d="M38.6055 105.329L38.6055 99.8428L34.3209 99.8428L34.3209 105.329L38.6055 105.329Z" stroke="#CCB4FB" stroke-width="0.711458" stroke-miterlimit="10"/>
<path d="M38.6055 110.816L38.6055 105.329L34.3209 105.329L34.3209 110.816L38.6055 110.816Z" stroke="#CCB4FB" stroke-width="0.711458" stroke-miterlimit="10"/>
<path d="M34.3203 61.4367L34.3203 55.9502L30.0357 55.9502L30.0357 61.4367L34.3203 61.4367Z" stroke="#CCB4FB" stroke-width="0.711458" stroke-miterlimit="10"/>
<path d="M34.3203 66.924L34.3203 61.4375L30.0357 61.4375L30.0357 66.924L34.3203 66.924Z" stroke="#CCB4FB" stroke-width="0.711458" stroke-miterlimit="10"/>
<path d="M34.3203 72.4103L34.3203 66.9238L30.0357 66.9238L30.0357 72.4103L34.3203 72.4103Z" stroke="#CCB4FB" stroke-width="0.711458" stroke-miterlimit="10"/>
<path d="M34.3203 77.8976L34.3203 72.4111L30.0357 72.4111L30.0357 77.8976L34.3203 77.8976Z" stroke="#CCB4FB" stroke-width="0.711458" stroke-miterlimit="10"/>
<path d="M34.3203 83.3839L34.3203 77.8975L30.0357 77.8975L30.0357 83.3839L34.3203 83.3839Z" stroke="#CCB4FB" stroke-width="0.711458" stroke-miterlimit="10"/>
<path d="M34.3203 88.8703L34.3203 83.3838L30.0357 83.3838L30.0357 88.8703L34.3203 88.8703Z" stroke="#CCB4FB" stroke-width="0.711458" stroke-miterlimit="10"/>
<path d="M34.3203 94.3566L34.3203 88.8701L30.0357 88.8701L30.0357 94.3566L34.3203 94.3566Z" stroke="#CCB4FB" stroke-width="0.711458" stroke-miterlimit="10"/>
<path d="M34.3203 99.8429L34.3203 94.3564L30.0357 94.3564L30.0357 99.8429L34.3203 99.8429Z" stroke="#CCB4FB" stroke-width="0.711458" stroke-miterlimit="10"/>
<path d="M34.3203 105.329L34.3203 99.8428L30.0357 99.8428L30.0357 105.329L34.3203 105.329Z" stroke="#CCB4FB" stroke-width="0.711458" stroke-miterlimit="10"/>
<path d="M34.3203 110.816L34.3203 105.329L30.0357 105.329L30.0357 110.816L34.3203 110.816Z" stroke="#CCB4FB" stroke-width="0.711458" stroke-miterlimit="10"/>
<path d="M30.0352 61.4367L30.0352 55.9502L25.7506 55.9502L25.7506 61.4367L30.0352 61.4367Z" stroke="#CCB4FB" stroke-width="0.711458" stroke-miterlimit="10"/>
<path d="M30.0352 66.924L30.0352 61.4375L25.7506 61.4375L25.7506 66.924L30.0352 66.924Z" stroke="#CCB4FB" stroke-width="0.711458" stroke-miterlimit="10"/>
<path d="M30.0352 72.4103L30.0352 66.9238L25.7506 66.9238L25.7506 72.4103L30.0352 72.4103Z" stroke="#CCB4FB" stroke-width="0.711458" stroke-miterlimit="10"/>
<path d="M30.0352 77.8976L30.0352 72.4111L25.7506 72.4111L25.7506 77.8976L30.0352 77.8976Z" stroke="#CCB4FB" stroke-width="0.711458" stroke-miterlimit="10"/>
<path d="M30.0352 83.3839L30.0352 77.8975L25.7506 77.8975L25.7506 83.3839L30.0352 83.3839Z" stroke="#CCB4FB" stroke-width="0.711458" stroke-miterlimit="10"/>
<path d="M30.0352 88.8703L30.0352 83.3838L25.7506 83.3838L25.7506 88.8703L30.0352 88.8703Z" stroke="#CCB4FB" stroke-width="0.711458" stroke-miterlimit="10"/>
<path d="M30.0352 94.3566L30.0352 88.8701L25.7506 88.8701L25.7506 94.3566L30.0352 94.3566Z" stroke="#CCB4FB" stroke-width="0.711458" stroke-miterlimit="10"/>
<path d="M30.0352 99.8429L30.0352 94.3564L25.7506 94.3564L25.7506 99.8429L30.0352 99.8429Z" stroke="#CCB4FB" stroke-width="0.711458" stroke-miterlimit="10"/>
<path d="M30.0352 105.329L30.0352 99.8428L25.7506 99.8428L25.7506 105.329L30.0352 105.329Z" stroke="#CCB4FB" stroke-width="0.711458" stroke-miterlimit="10"/>
<path d="M30.0352 110.816L30.0352 105.329L25.7506 105.329L25.7506 110.816L30.0352 110.816Z" stroke="#CCB4FB" stroke-width="0.711458" stroke-miterlimit="10"/>
<path d="M25.75 61.4367L25.75 55.9502L21.4654 55.9502L21.4654 61.4367L25.75 61.4367Z" stroke="#CCB4FB" stroke-width="0.711458" stroke-miterlimit="10"/>
<path d="M25.75 66.924L25.75 61.4375L21.4654 61.4375L21.4654 66.924L25.75 66.924Z" stroke="#CCB4FB" stroke-width="0.711458" stroke-miterlimit="10"/>
<path d="M25.75 72.4103L25.75 66.9238L21.4654 66.9238L21.4654 72.4103L25.75 72.4103Z" stroke="#CCB4FB" stroke-width="0.711458" stroke-miterlimit="10"/>
<path d="M25.75 77.8976L25.75 72.4111L21.4654 72.4111L21.4654 77.8976L25.75 77.8976Z" stroke="#CCB4FB" stroke-width="0.711458" stroke-miterlimit="10"/>
<path d="M25.75 83.3839L25.75 77.8975L21.4654 77.8975L21.4654 83.3839L25.75 83.3839Z" stroke="#CCB4FB" stroke-width="0.711458" stroke-miterlimit="10"/>
<path d="M25.75 88.8703L25.75 83.3838L21.4654 83.3838L21.4654 88.8703L25.75 88.8703Z" stroke="#CCB4FB" stroke-width="0.711458" stroke-miterlimit="10"/>
<path d="M25.75 94.3566L25.75 88.8701L21.4654 88.8701L21.4654 94.3566L25.75 94.3566Z" stroke="#CCB4FB" stroke-width="0.711458" stroke-miterlimit="10"/>
<path d="M25.75 99.8429L25.75 94.3564L21.4654 94.3564L21.4654 99.8429L25.75 99.8429Z" stroke="#CCB4FB" stroke-width="0.711458" stroke-miterlimit="10"/>
<path d="M25.75 105.329L25.75 99.8428L21.4654 99.8428L21.4654 105.329L25.75 105.329Z" stroke="#CCB4FB" stroke-width="0.711458" stroke-miterlimit="10"/>
<path d="M25.75 110.816L25.75 105.329L21.4654 105.329L21.4654 110.816L25.75 110.816Z" stroke="#CCB4FB" stroke-width="0.711458" stroke-miterlimit="10"/>
<path d="M21.4668 61.4367L21.4668 55.9502L17.1822 55.9502L17.1822 61.4367L21.4668 61.4367Z" stroke="#CCB4FB" stroke-width="0.711458" stroke-miterlimit="10"/>
<path d="M21.4668 66.924L21.4668 61.4375L17.1822 61.4375L17.1822 66.924L21.4668 66.924Z" stroke="#CCB4FB" stroke-width="0.711458" stroke-miterlimit="10"/>
<path d="M21.4668 72.4103L21.4668 66.9238L17.1822 66.9238L17.1822 72.4103L21.4668 72.4103Z" stroke="#CCB4FB" stroke-width="0.711458" stroke-miterlimit="10"/>
<path d="M21.4668 77.8976L21.4668 72.4111L17.1822 72.4111L17.1822 77.8976L21.4668 77.8976Z" stroke="#CCB4FB" stroke-width="0.711458" stroke-miterlimit="10"/>
<path d="M21.4668 83.3839L21.4668 77.8975L17.1822 77.8975L17.1822 83.3839L21.4668 83.3839Z" stroke="#CCB4FB" stroke-width="0.711458" stroke-miterlimit="10"/>
<path d="M21.4668 88.8703L21.4668 83.3838L17.1822 83.3838L17.1822 88.8703L21.4668 88.8703Z" stroke="#CCB4FB" stroke-width="0.711458" stroke-miterlimit="10"/>
<path d="M21.4668 94.3566L21.4668 88.8701L17.1822 88.8701L17.1822 94.3566L21.4668 94.3566Z" stroke="#CCB4FB" stroke-width="0.711458" stroke-miterlimit="10"/>
<path d="M21.4668 99.8429L21.4668 94.3564L17.1822 94.3564L17.1822 99.8429L21.4668 99.8429Z" stroke="#CCB4FB" stroke-width="0.711458" stroke-miterlimit="10"/>
<path d="M21.4668 105.329L21.4668 99.8428L17.1822 99.8428L17.1822 105.329L21.4668 105.329Z" stroke="#CCB4FB" stroke-width="0.711458" stroke-miterlimit="10"/>
<path d="M21.4668 110.816L21.4668 105.329L17.1822 105.329L17.1822 110.816L21.4668 110.816Z" stroke="#CCB4FB" stroke-width="0.711458" stroke-miterlimit="10"/>
<path d="M17.1797 61.4367L17.1797 55.9502L12.8951 55.9502L12.8951 61.4367L17.1797 61.4367Z" stroke="#CCB4FB" stroke-width="0.711458" stroke-miterlimit="10"/>
<path d="M17.1797 66.924L17.1797 61.4375L12.8951 61.4375L12.8951 66.924L17.1797 66.924Z" stroke="#CCB4FB" stroke-width="0.711458" stroke-miterlimit="10"/>
<path d="M17.1797 72.4103L17.1797 66.9238L12.8951 66.9238L12.8951 72.4103L17.1797 72.4103Z" stroke="#CCB4FB" stroke-width="0.711458" stroke-miterlimit="10"/>
<path d="M17.1797 77.8976L17.1797 72.4111L12.8951 72.4111L12.8951 77.8976L17.1797 77.8976Z" stroke="#CCB4FB" stroke-width="0.711458" stroke-miterlimit="10"/>
<path d="M17.1797 83.3839L17.1797 77.8975L12.8951 77.8975L12.8951 83.3839L17.1797 83.3839Z" stroke="#CCB4FB" stroke-width="0.711458" stroke-miterlimit="10"/>
<path d="M17.1797 88.8703L17.1797 83.3838L12.8951 83.3838L12.8951 88.8703L17.1797 88.8703Z" stroke="#CCB4FB" stroke-width="0.711458" stroke-miterlimit="10"/>
<path d="M17.1797 94.3566L17.1797 88.8701L12.8951 88.8701L12.8951 94.3566L17.1797 94.3566Z" stroke="#CCB4FB" stroke-width="0.711458" stroke-miterlimit="10"/>
<path d="M17.1797 99.8429L17.1797 94.3564L12.8951 94.3564L12.8951 99.8429L17.1797 99.8429Z" stroke="#CCB4FB" stroke-width="0.711458" stroke-miterlimit="10"/>
<path d="M17.1797 105.329L17.1797 99.8428L12.8951 99.8428L12.8951 105.329L17.1797 105.329Z" stroke="#CCB4FB" stroke-width="0.711458" stroke-miterlimit="10"/>
<path d="M17.1797 110.816L17.1797 105.329L12.8951 105.329L12.8951 110.816L17.1797 110.816Z" stroke="#CCB4FB" stroke-width="0.711458" stroke-miterlimit="10"/>
<path d="M12.8984 61.4367L12.8984 55.9502L8.61384 55.9502L8.61384 61.4367L12.8984 61.4367Z" stroke="#CCB4FB" stroke-width="0.711458" stroke-miterlimit="10"/>
<path d="M12.8984 66.924L12.8984 61.4375L8.61384 61.4375L8.61384 66.924L12.8984 66.924Z" stroke="#CCB4FB" stroke-width="0.711458" stroke-miterlimit="10"/>
<path d="M12.8984 72.4103L12.8984 66.9238L8.61384 66.9238L8.61384 72.4103L12.8984 72.4103Z" stroke="#CCB4FB" stroke-width="0.711458" stroke-miterlimit="10"/>
<path d="M12.8984 77.8976L12.8984 72.4111L8.61384 72.4111L8.61384 77.8976L12.8984 77.8976Z" stroke="#CCB4FB" stroke-width="0.711458" stroke-miterlimit="10"/>
<path d="M12.8984 83.3839L12.8984 77.8975L8.61384 77.8975L8.61384 83.3839L12.8984 83.3839Z" stroke="#CCB4FB" stroke-width="0.711458" stroke-miterlimit="10"/>
<path d="M12.8984 88.8703L12.8984 83.3838L8.61384 83.3838L8.61384 88.8703L12.8984 88.8703Z" stroke="#CCB4FB" stroke-width="0.711458" stroke-miterlimit="10"/>
<path d="M12.8984 94.3566L12.8984 88.8701L8.61384 88.8701L8.61384 94.3566L12.8984 94.3566Z" stroke="#CCB4FB" stroke-width="0.711458" stroke-miterlimit="10"/>
<path d="M12.8984 99.8429L12.8984 94.3564L8.61384 94.3564L8.61384 99.8429L12.8984 99.8429Z" stroke="#CCB4FB" stroke-width="0.711458" stroke-miterlimit="10"/>
<path d="M12.8984 105.329L12.8984 99.8428L8.61384 99.8428L8.61384 105.329L12.8984 105.329Z" stroke="#CCB4FB" stroke-width="0.711458" stroke-miterlimit="10"/>
<path d="M12.8984 110.816L12.8984 105.329L8.61384 105.329L8.61384 110.816L12.8984 110.816Z" stroke="#CCB4FB" stroke-width="0.711458" stroke-miterlimit="10"/>
<path d="M8.61328 61.4367L8.61328 55.9502L4.32868 55.9502L4.32868 61.4367L8.61328 61.4367Z" stroke="#CCB4FB" stroke-width="0.711458" stroke-miterlimit="10"/>
<path d="M8.61328 66.924L8.61328 61.4375L4.32868 61.4375L4.32868 66.924L8.61328 66.924Z" stroke="#CCB4FB" stroke-width="0.711458" stroke-miterlimit="10"/>
<path d="M8.61328 72.4103L8.61328 66.9238L4.32868 66.9238L4.32868 72.4103L8.61328 72.4103Z" stroke="#CCB4FB" stroke-width="0.711458" stroke-miterlimit="10"/>
<path d="M8.61328 77.8976L8.61328 72.4111L4.32868 72.4111L4.32868 77.8976L8.61328 77.8976Z" stroke="#CCB4FB" stroke-width="0.711458" stroke-miterlimit="10"/>
<path d="M8.61328 83.3839L8.61328 77.8975L4.32868 77.8975L4.32868 83.3839L8.61328 83.3839Z" stroke="#CCB4FB" stroke-width="0.711458" stroke-miterlimit="10"/>
<path d="M8.61328 88.8703L8.61328 83.3838L4.32868 83.3838L4.32868 88.8703L8.61328 88.8703Z" stroke="#CCB4FB" stroke-width="0.711458" stroke-miterlimit="10"/>
<path d="M8.61328 94.3566L8.61328 88.8701L4.32868 88.8701L4.32868 94.3566L8.61328 94.3566Z" stroke="#CCB4FB" stroke-width="0.711458" stroke-miterlimit="10"/>
<path d="M8.61328 99.8429L8.61328 94.3564L4.32868 94.3564L4.32868 99.8429L8.61328 99.8429Z" stroke="#CCB4FB" stroke-width="0.711458" stroke-miterlimit="10"/>
<path d="M8.61328 105.329L8.61328 99.8428L4.32868 99.8428L4.32868 105.329L8.61328 105.329Z" stroke="#CCB4FB" stroke-width="0.711458" stroke-miterlimit="10"/>
<path d="M8.61328 110.816L8.61328 105.329L4.32868 105.329L4.32868 110.816L8.61328 110.816Z" stroke="#CCB4FB" stroke-width="0.711458" stroke-miterlimit="10"/>
<mask id="mask1_2223_7154" style="mask-type:luminance" maskUnits="userSpaceOnUse" x="0" y="1" width="43" height="111">
<path d="M43 111.001L43 1.04883L0.000614166 1.04883L0.000601732 111.001L43 111.001Z" fill="white"/>
</mask>
<g mask="url(#mask1_2223_7154)">
<path d="M4.39648 61.4855L4.39648 55.999L0.111883 55.999L0.111882 61.4855L4.39648 61.4855Z" stroke="#CCB4FB" stroke-width="0.711458" stroke-miterlimit="10"/>
<path d="M4.39648 66.9728L4.39648 61.4863L0.111883 61.4863L0.111882 66.9728L4.39648 66.9728Z" stroke="#CCB4FB" stroke-width="0.711458" stroke-miterlimit="10"/>
<path d="M4.39648 72.4591L4.39648 66.9727L0.111883 66.9727L0.111882 72.4591L4.39648 72.4591Z" stroke="#CCB4FB" stroke-width="0.711458" stroke-miterlimit="10"/>
<path d="M4.39648 77.9455L4.39648 72.459L0.111883 72.459L0.111882 77.9455L4.39648 77.9455Z" stroke="#CCB4FB" stroke-width="0.711458" stroke-miterlimit="10"/>
<path d="M4.39648 83.4328L4.39648 77.9463L0.111883 77.9463L0.111882 83.4328L4.39648 83.4328Z" stroke="#CCB4FB" stroke-width="0.711458" stroke-miterlimit="10"/>
<path d="M4.39648 88.9191L4.39648 83.4326L0.111883 83.4326L0.111882 88.9191L4.39648 88.9191Z" stroke="#CCB4FB" stroke-width="0.711458" stroke-miterlimit="10"/>
<path d="M4.39648 94.4064L4.39648 88.9199L0.111883 88.9199L0.111882 94.4064L4.39648 94.4064Z" stroke="#CCB4FB" stroke-width="0.711458" stroke-miterlimit="10"/>
<path d="M4.39648 99.8927L4.39648 94.4062L0.111883 94.4062L0.111882 99.8927L4.39648 99.8927Z" stroke="#CCB4FB" stroke-width="0.711458" stroke-miterlimit="10"/>
<path d="M4.39648 105.378L4.39648 99.8916L0.111883 99.8916L0.111882 105.378L4.39648 105.378Z" stroke="#CCB4FB" stroke-width="0.711458" stroke-miterlimit="10"/>
<path d="M4.39648 110.864L4.39648 105.378L0.111883 105.378L0.111882 110.864L4.39648 110.864Z" stroke="#CCB4FB" stroke-width="0.711458" stroke-miterlimit="10"/>
<path d="M21.538 110.865L42.9609 56L0.115395 56L21.538 110.865Z" stroke="#CCB4FB" stroke-width="0.711458" stroke-miterlimit="10"/>
<path d="M21.538 56L0.115392 110.865L42.9609 110.865L21.538 56Z" stroke="#CCB4FB" stroke-width="0.711458" stroke-miterlimit="10"/>
</g>
</svg>
