<svg width="110" height="415" viewBox="0 0 110 415" fill="none" xmlns="http://www.w3.org/2000/svg">
<path d="M109.012 21.9741L109.012 1.3252L98.1211 1.32519L98.1211 21.9741L109.012 21.9741Z" stroke="#CCB4FB" stroke-width="0.711458" stroke-miterlimit="10"/>
<path d="M109.012 42.6225L109.012 21.9736L98.1211 21.9736L98.1211 42.6225L109.012 42.6225Z" stroke="#CCB4FB" stroke-width="0.711458" stroke-miterlimit="10"/>
<path d="M109.012 63.2719L109.012 42.623L98.1211 42.623L98.1211 63.2719L109.012 63.2719Z" stroke="#CCB4FB" stroke-width="0.711458" stroke-miterlimit="10"/>
<path d="M109.012 83.9213L109.012 63.2725L98.1211 63.2725L98.1211 83.9213L109.012 83.9213Z" stroke="#CCB4FB" stroke-width="0.711458" stroke-miterlimit="10"/>
<path d="M109.012 104.572L109.012 83.9229L98.1211 83.9229L98.1211 104.572L109.012 104.572Z" stroke="#CCB4FB" stroke-width="0.711458" stroke-miterlimit="10"/>
<path d="M109.012 125.22L109.012 104.571L98.1211 104.571L98.1211 125.22L109.012 125.22Z" stroke="#CCB4FB" stroke-width="0.711458" stroke-miterlimit="10"/>
<path d="M109.012 145.87L109.012 125.221L98.1211 125.221L98.1211 145.87L109.012 145.87Z" stroke="#CCB4FB" stroke-width="0.711458" stroke-miterlimit="10"/>
<path d="M109.012 166.518L109.012 145.869L98.1211 145.869L98.1211 166.518L109.012 166.518Z" stroke="#CCB4FB" stroke-width="0.711458" stroke-miterlimit="10"/>
<path d="M109.012 187.167L109.012 166.519L98.1211 166.519L98.1211 187.167L109.012 187.167Z" stroke="#CCB4FB" stroke-width="0.711458" stroke-miterlimit="10"/>
<path d="M109.012 207.816L109.012 187.167L98.1211 187.167L98.1211 207.816L109.012 207.816Z" stroke="#CCB4FB" stroke-width="0.711458" stroke-miterlimit="10"/>
<path d="M98.1211 21.9741L98.1211 1.3252L87.2305 1.32519L87.2305 21.9741L98.1211 21.9741Z" stroke="#CCB4FB" stroke-width="0.711458" stroke-miterlimit="10"/>
<path d="M98.1211 42.6225L98.1211 21.9736L87.2305 21.9736L87.2305 42.6225L98.1211 42.6225Z" stroke="#CCB4FB" stroke-width="0.711458" stroke-miterlimit="10"/>
<path d="M98.1211 63.2719L98.1211 42.623L87.2305 42.623L87.2305 63.2719L98.1211 63.2719Z" stroke="#CCB4FB" stroke-width="0.711458" stroke-miterlimit="10"/>
<path d="M98.1211 83.9213L98.1211 63.2725L87.2305 63.2725L87.2305 83.9213L98.1211 83.9213Z" stroke="#CCB4FB" stroke-width="0.711458" stroke-miterlimit="10"/>
<path d="M98.1211 104.572L98.1211 83.9229L87.2305 83.9229L87.2305 104.572L98.1211 104.572Z" stroke="#CCB4FB" stroke-width="0.711458" stroke-miterlimit="10"/>
<path d="M98.1211 125.22L98.1211 104.571L87.2305 104.571L87.2305 125.22L98.1211 125.22Z" stroke="#CCB4FB" stroke-width="0.711458" stroke-miterlimit="10"/>
<path d="M98.1211 145.87L98.1211 125.221L87.2305 125.221L87.2305 145.87L98.1211 145.87Z" stroke="#CCB4FB" stroke-width="0.711458" stroke-miterlimit="10"/>
<path d="M98.1211 166.518L98.1211 145.869L87.2305 145.869L87.2305 166.518L98.1211 166.518Z" stroke="#CCB4FB" stroke-width="0.711458" stroke-miterlimit="10"/>
<path d="M98.1211 187.167L98.1211 166.519L87.2305 166.519L87.2305 187.167L98.1211 187.167Z" stroke="#CCB4FB" stroke-width="0.711458" stroke-miterlimit="10"/>
<path d="M98.1211 207.816L98.1211 187.167L87.2305 187.167L87.2305 207.816L98.1211 207.816Z" stroke="#CCB4FB" stroke-width="0.711458" stroke-miterlimit="10"/>
<path d="M87.2305 21.9741L87.2305 1.3252L76.3399 1.32519L76.3399 21.9741L87.2305 21.9741Z" stroke="#CCB4FB" stroke-width="0.711458" stroke-miterlimit="10"/>
<path d="M87.2305 42.6225L87.2305 21.9736L76.3399 21.9736L76.3399 42.6225L87.2305 42.6225Z" stroke="#CCB4FB" stroke-width="0.711458" stroke-miterlimit="10"/>
<path d="M87.2305 63.2719L87.2305 42.623L76.3399 42.623L76.3399 63.2719L87.2305 63.2719Z" stroke="#CCB4FB" stroke-width="0.711458" stroke-miterlimit="10"/>
<path d="M87.2305 83.9213L87.2305 63.2725L76.3399 63.2725L76.3399 83.9213L87.2305 83.9213Z" stroke="#CCB4FB" stroke-width="0.711458" stroke-miterlimit="10"/>
<path d="M87.2305 104.572L87.2305 83.9229L76.3399 83.9229L76.3399 104.572L87.2305 104.572Z" stroke="#CCB4FB" stroke-width="0.711458" stroke-miterlimit="10"/>
<path d="M87.2305 125.22L87.2305 104.571L76.3399 104.571L76.3399 125.22L87.2305 125.22Z" stroke="#CCB4FB" stroke-width="0.711458" stroke-miterlimit="10"/>
<path d="M87.2305 145.87L87.2305 125.221L76.3399 125.221L76.3399 145.87L87.2305 145.87Z" stroke="#CCB4FB" stroke-width="0.711458" stroke-miterlimit="10"/>
<path d="M87.2305 166.518L87.2305 145.869L76.3399 145.869L76.3399 166.518L87.2305 166.518Z" stroke="#CCB4FB" stroke-width="0.711458" stroke-miterlimit="10"/>
<path d="M87.2305 187.167L87.2305 166.519L76.3399 166.519L76.3399 187.167L87.2305 187.167Z" stroke="#CCB4FB" stroke-width="0.711458" stroke-miterlimit="10"/>
<path d="M87.2305 207.816L87.2305 187.167L76.3399 187.167L76.3399 207.816L87.2305 207.816Z" stroke="#CCB4FB" stroke-width="0.711458" stroke-miterlimit="10"/>
<path d="M76.3398 21.9741L76.3398 1.3252L65.4492 1.32519L65.4492 21.9741L76.3398 21.9741Z" stroke="#CCB4FB" stroke-width="0.711458" stroke-miterlimit="10"/>
<path d="M76.3398 42.6225L76.3398 21.9736L65.4492 21.9736L65.4492 42.6225L76.3398 42.6225Z" stroke="#CCB4FB" stroke-width="0.711458" stroke-miterlimit="10"/>
<path d="M76.3398 63.2719L76.3398 42.623L65.4492 42.623L65.4492 63.2719L76.3398 63.2719Z" stroke="#CCB4FB" stroke-width="0.711458" stroke-miterlimit="10"/>
<path d="M76.3398 83.9213L76.3398 63.2725L65.4492 63.2725L65.4492 83.9213L76.3398 83.9213Z" stroke="#CCB4FB" stroke-width="0.711458" stroke-miterlimit="10"/>
<path d="M76.3398 104.572L76.3398 83.9229L65.4492 83.9229L65.4492 104.572L76.3398 104.572Z" stroke="#CCB4FB" stroke-width="0.711458" stroke-miterlimit="10"/>
<path d="M76.3398 125.22L76.3398 104.571L65.4492 104.571L65.4492 125.22L76.3398 125.22Z" stroke="#CCB4FB" stroke-width="0.711458" stroke-miterlimit="10"/>
<path d="M76.3398 145.87L76.3398 125.221L65.4492 125.221L65.4492 145.87L76.3398 145.87Z" stroke="#CCB4FB" stroke-width="0.711458" stroke-miterlimit="10"/>
<path d="M76.3398 166.518L76.3398 145.869L65.4492 145.869L65.4492 166.518L76.3398 166.518Z" stroke="#CCB4FB" stroke-width="0.711458" stroke-miterlimit="10"/>
<path d="M76.3398 187.167L76.3398 166.519L65.4492 166.519L65.4492 187.167L76.3398 187.167Z" stroke="#CCB4FB" stroke-width="0.711458" stroke-miterlimit="10"/>
<path d="M76.3398 207.816L76.3398 187.167L65.4492 187.167L65.4492 207.816L76.3398 207.816Z" stroke="#CCB4FB" stroke-width="0.711458" stroke-miterlimit="10"/>
<path d="M65.4492 21.9741L65.4492 1.3252L54.5586 1.32519L54.5586 21.9741L65.4492 21.9741Z" stroke="#CCB4FB" stroke-width="0.711458" stroke-miterlimit="10"/>
<path d="M65.4492 42.6225L65.4492 21.9736L54.5586 21.9736L54.5586 42.6225L65.4492 42.6225Z" stroke="#CCB4FB" stroke-width="0.711458" stroke-miterlimit="10"/>
<path d="M65.4492 63.2719L65.4492 42.623L54.5586 42.623L54.5586 63.2719L65.4492 63.2719Z" stroke="#CCB4FB" stroke-width="0.711458" stroke-miterlimit="10"/>
<path d="M65.4492 83.9213L65.4492 63.2725L54.5586 63.2725L54.5586 83.9213L65.4492 83.9213Z" stroke="#CCB4FB" stroke-width="0.711458" stroke-miterlimit="10"/>
<path d="M65.4492 104.572L65.4492 83.9229L54.5586 83.9229L54.5586 104.572L65.4492 104.572Z" stroke="#CCB4FB" stroke-width="0.711458" stroke-miterlimit="10"/>
<path d="M65.4492 125.22L65.4492 104.571L54.5586 104.571L54.5586 125.22L65.4492 125.22Z" stroke="#CCB4FB" stroke-width="0.711458" stroke-miterlimit="10"/>
<path d="M65.4492 145.87L65.4492 125.221L54.5586 125.221L54.5586 145.87L65.4492 145.87Z" stroke="#CCB4FB" stroke-width="0.711458" stroke-miterlimit="10"/>
<path d="M65.4492 166.518L65.4492 145.869L54.5586 145.869L54.5586 166.518L65.4492 166.518Z" stroke="#CCB4FB" stroke-width="0.711458" stroke-miterlimit="10"/>
<path d="M65.4492 187.167L65.4492 166.519L54.5586 166.519L54.5586 187.167L65.4492 187.167Z" stroke="#CCB4FB" stroke-width="0.711458" stroke-miterlimit="10"/>
<path d="M65.4492 207.816L65.4492 187.167L54.5586 187.167L54.5586 207.816L65.4492 207.816Z" stroke="#CCB4FB" stroke-width="0.711458" stroke-miterlimit="10"/>
<path d="M54.5605 21.9741L54.5605 1.3252L43.6699 1.32519L43.6699 21.9741L54.5605 21.9741Z" stroke="#CCB4FB" stroke-width="0.711458" stroke-miterlimit="10"/>
<path d="M54.5605 42.6225L54.5605 21.9736L43.6699 21.9736L43.6699 42.6225L54.5605 42.6225Z" stroke="#CCB4FB" stroke-width="0.711458" stroke-miterlimit="10"/>
<path d="M54.5605 63.2719L54.5605 42.623L43.6699 42.623L43.6699 63.2719L54.5605 63.2719Z" stroke="#CCB4FB" stroke-width="0.711458" stroke-miterlimit="10"/>
<path d="M54.5605 83.9213L54.5605 63.2725L43.6699 63.2725L43.6699 83.9213L54.5605 83.9213Z" stroke="#CCB4FB" stroke-width="0.711458" stroke-miterlimit="10"/>
<path d="M54.5605 104.572L54.5605 83.9229L43.6699 83.9229L43.6699 104.572L54.5605 104.572Z" stroke="#CCB4FB" stroke-width="0.711458" stroke-miterlimit="10"/>
<path d="M54.5605 125.22L54.5605 104.571L43.6699 104.571L43.6699 125.22L54.5605 125.22Z" stroke="#CCB4FB" stroke-width="0.711458" stroke-miterlimit="10"/>
<path d="M54.5605 145.87L54.5605 125.221L43.6699 125.221L43.6699 145.87L54.5605 145.87Z" stroke="#CCB4FB" stroke-width="0.711458" stroke-miterlimit="10"/>
<path d="M54.5605 166.518L54.5605 145.869L43.6699 145.869L43.6699 166.518L54.5605 166.518Z" stroke="#CCB4FB" stroke-width="0.711458" stroke-miterlimit="10"/>
<path d="M54.5605 187.167L54.5605 166.519L43.6699 166.519L43.6699 187.167L54.5605 187.167Z" stroke="#CCB4FB" stroke-width="0.711458" stroke-miterlimit="10"/>
<path d="M54.5605 207.816L54.5605 187.167L43.6699 187.167L43.6699 207.816L54.5605 207.816Z" stroke="#CCB4FB" stroke-width="0.711458" stroke-miterlimit="10"/>
<path d="M43.668 21.9741L43.668 1.3252L32.7774 1.32519L32.7774 21.9741L43.668 21.9741Z" stroke="#CCB4FB" stroke-width="0.711458" stroke-miterlimit="10"/>
<path d="M43.668 42.6225L43.668 21.9736L32.7774 21.9736L32.7774 42.6225L43.668 42.6225Z" stroke="#CCB4FB" stroke-width="0.711458" stroke-miterlimit="10"/>
<path d="M43.668 63.2719L43.668 42.623L32.7774 42.623L32.7774 63.2719L43.668 63.2719Z" stroke="#CCB4FB" stroke-width="0.711458" stroke-miterlimit="10"/>
<path d="M43.668 83.9213L43.668 63.2725L32.7774 63.2725L32.7774 83.9213L43.668 83.9213Z" stroke="#CCB4FB" stroke-width="0.711458" stroke-miterlimit="10"/>
<path d="M43.668 104.572L43.668 83.9229L32.7774 83.9229L32.7774 104.572L43.668 104.572Z" stroke="#CCB4FB" stroke-width="0.711458" stroke-miterlimit="10"/>
<path d="M43.668 125.22L43.668 104.571L32.7774 104.571L32.7774 125.22L43.668 125.22Z" stroke="#CCB4FB" stroke-width="0.711458" stroke-miterlimit="10"/>
<path d="M43.668 145.87L43.668 125.221L32.7774 125.221L32.7774 145.87L43.668 145.87Z" stroke="#CCB4FB" stroke-width="0.711458" stroke-miterlimit="10"/>
<path d="M43.668 166.518L43.668 145.869L32.7774 145.869L32.7774 166.518L43.668 166.518Z" stroke="#CCB4FB" stroke-width="0.711458" stroke-miterlimit="10"/>
<path d="M43.668 187.167L43.668 166.519L32.7774 166.519L32.7774 187.167L43.668 187.167Z" stroke="#CCB4FB" stroke-width="0.711458" stroke-miterlimit="10"/>
<path d="M43.668 207.816L43.668 187.167L32.7774 187.167L32.7774 207.816L43.668 207.816Z" stroke="#CCB4FB" stroke-width="0.711458" stroke-miterlimit="10"/>
<path d="M32.7773 21.9741L32.7773 1.3252L21.8867 1.32519L21.8867 21.9741L32.7773 21.9741Z" stroke="#CCB4FB" stroke-width="0.711458" stroke-miterlimit="10"/>
<path d="M32.7773 42.6225L32.7773 21.9736L21.8867 21.9736L21.8867 42.6225L32.7773 42.6225Z" stroke="#CCB4FB" stroke-width="0.711458" stroke-miterlimit="10"/>
<path d="M32.7773 63.2719L32.7773 42.623L21.8867 42.623L21.8867 63.2719L32.7773 63.2719Z" stroke="#CCB4FB" stroke-width="0.711458" stroke-miterlimit="10"/>
<path d="M32.7773 83.9213L32.7773 63.2725L21.8867 63.2725L21.8867 83.9213L32.7773 83.9213Z" stroke="#CCB4FB" stroke-width="0.711458" stroke-miterlimit="10"/>
<path d="M32.7773 104.572L32.7773 83.9229L21.8867 83.9229L21.8867 104.572L32.7773 104.572Z" stroke="#CCB4FB" stroke-width="0.711458" stroke-miterlimit="10"/>
<path d="M32.7773 125.22L32.7773 104.571L21.8867 104.571L21.8867 125.22L32.7773 125.22Z" stroke="#CCB4FB" stroke-width="0.711458" stroke-miterlimit="10"/>
<path d="M32.7773 145.87L32.7773 125.221L21.8867 125.221L21.8867 145.87L32.7773 145.87Z" stroke="#CCB4FB" stroke-width="0.711458" stroke-miterlimit="10"/>
<path d="M32.7773 166.518L32.7773 145.869L21.8867 145.869L21.8867 166.518L32.7773 166.518Z" stroke="#CCB4FB" stroke-width="0.711458" stroke-miterlimit="10"/>
<path d="M32.7773 187.167L32.7773 166.519L21.8867 166.519L21.8867 187.167L32.7773 187.167Z" stroke="#CCB4FB" stroke-width="0.711458" stroke-miterlimit="10"/>
<path d="M32.7773 207.816L32.7773 187.167L21.8867 187.167L21.8867 207.816L32.7773 207.816Z" stroke="#CCB4FB" stroke-width="0.711458" stroke-miterlimit="10"/>
<path d="M21.8867 21.9741L21.8867 1.3252L10.9961 1.32519L10.9961 21.9741L21.8867 21.9741Z" stroke="#CCB4FB" stroke-width="0.711458" stroke-miterlimit="10"/>
<path d="M21.8867 42.6225L21.8867 21.9736L10.9961 21.9736L10.9961 42.6225L21.8867 42.6225Z" stroke="#CCB4FB" stroke-width="0.711458" stroke-miterlimit="10"/>
<path d="M21.8867 63.2719L21.8867 42.623L10.9961 42.623L10.9961 63.2719L21.8867 63.2719Z" stroke="#CCB4FB" stroke-width="0.711458" stroke-miterlimit="10"/>
<path d="M21.8867 83.9213L21.8867 63.2725L10.9961 63.2725L10.9961 83.9213L21.8867 83.9213Z" stroke="#CCB4FB" stroke-width="0.711458" stroke-miterlimit="10"/>
<path d="M21.8867 104.572L21.8867 83.9229L10.9961 83.9229L10.9961 104.572L21.8867 104.572Z" stroke="#CCB4FB" stroke-width="0.711458" stroke-miterlimit="10"/>
<path d="M21.8867 125.22L21.8867 104.571L10.9961 104.571L10.9961 125.22L21.8867 125.22Z" stroke="#CCB4FB" stroke-width="0.711458" stroke-miterlimit="10"/>
<path d="M21.8867 145.87L21.8867 125.221L10.9961 125.221L10.9961 145.87L21.8867 145.87Z" stroke="#CCB4FB" stroke-width="0.711458" stroke-miterlimit="10"/>
<path d="M21.8867 166.518L21.8867 145.869L10.9961 145.869L10.9961 166.518L21.8867 166.518Z" stroke="#CCB4FB" stroke-width="0.711458" stroke-miterlimit="10"/>
<path d="M21.8867 187.167L21.8867 166.519L10.9961 166.519L10.9961 187.167L21.8867 187.167Z" stroke="#CCB4FB" stroke-width="0.711458" stroke-miterlimit="10"/>
<path d="M21.8867 207.816L21.8867 187.167L10.9961 187.167L10.9961 207.816L21.8867 207.816Z" stroke="#CCB4FB" stroke-width="0.711458" stroke-miterlimit="10"/>
<mask id="mask0_2214_31921" style="mask-type:luminance" maskUnits="userSpaceOnUse" x="0" y="1" width="110" height="414">
<path d="M109.121 414.632L109.121 1L0.00312805 0.999995L0.00310997 414.632L109.121 414.632Z" fill="white"/>
</mask>
<g mask="url(#mask0_2214_31921)">
<path d="M10.998 21.9731L10.998 1.32422L0.107431 1.32422L0.107431 21.9731L10.998 21.9731Z" stroke="#CCB4FB" stroke-width="0.711458" stroke-miterlimit="10"/>
<path d="M10.998 42.6215L10.998 21.9727L0.107431 21.9727L0.107431 42.6215L10.998 42.6215Z" stroke="#CCB4FB" stroke-width="0.711458" stroke-miterlimit="10"/>
<path d="M10.998 63.271L10.998 42.6221L0.107431 42.6221L0.107431 63.271L10.998 63.271Z" stroke="#CCB4FB" stroke-width="0.711458" stroke-miterlimit="10"/>
<path d="M10.998 83.9204L10.998 63.2715L0.107431 63.2715L0.107431 83.9204L10.998 83.9204Z" stroke="#CCB4FB" stroke-width="0.711458" stroke-miterlimit="10"/>
<path d="M10.998 104.571L10.998 83.9219L0.107431 83.9219L0.107431 104.571L10.998 104.571Z" stroke="#CCB4FB" stroke-width="0.711458" stroke-miterlimit="10"/>
<path d="M10.998 125.219L10.998 104.57L0.107431 104.57L0.107431 125.219L10.998 125.219Z" stroke="#CCB4FB" stroke-width="0.711458" stroke-miterlimit="10"/>
<path d="M10.998 145.869L10.998 125.22L0.107431 125.22L0.107431 145.869L10.998 145.869Z" stroke="#CCB4FB" stroke-width="0.711458" stroke-miterlimit="10"/>
<path d="M10.998 166.517L10.998 145.868L0.107431 145.868L0.107431 166.517L10.998 166.517Z" stroke="#CCB4FB" stroke-width="0.711458" stroke-miterlimit="10"/>
<path d="M10.998 187.166L10.998 166.518L0.107431 166.518L0.107431 187.166L10.998 187.166Z" stroke="#CCB4FB" stroke-width="0.711458" stroke-miterlimit="10"/>
<path d="M10.998 207.815L10.998 187.166L0.107431 187.166L0.107431 207.815L10.998 207.815Z" stroke="#CCB4FB" stroke-width="0.711458" stroke-miterlimit="10"/>
<path d="M54.5609 207.816L109.014 1.32422L0.10872 1.32421L54.5609 207.816Z" stroke="#CCB4FB" stroke-width="0.711458" stroke-miterlimit="10"/>
<path d="M54.5609 1.32422L0.108711 207.816L109.014 207.816L54.5609 1.32422Z" stroke="#CCB4FB" stroke-width="0.711458" stroke-miterlimit="10"/>
</g>
<path d="M109.012 228.465L109.012 207.816L98.1211 207.816L98.1211 228.465L109.012 228.465Z" stroke="#CCB4FB" stroke-width="0.711458" stroke-miterlimit="10"/>
<path d="M109.012 249.115L109.012 228.466L98.1211 228.466L98.1211 249.115L109.012 249.115Z" stroke="#CCB4FB" stroke-width="0.711458" stroke-miterlimit="10"/>
<path d="M109.012 269.763L109.012 249.114L98.1211 249.114L98.1211 269.763L109.012 269.763Z" stroke="#CCB4FB" stroke-width="0.711458" stroke-miterlimit="10"/>
<path d="M109.012 290.413L109.012 269.764L98.1211 269.764L98.1211 290.413L109.012 290.413Z" stroke="#CCB4FB" stroke-width="0.711458" stroke-miterlimit="10"/>
<path d="M109.012 311.063L109.012 290.414L98.1211 290.414L98.1211 311.063L109.012 311.063Z" stroke="#CCB4FB" stroke-width="0.711458" stroke-miterlimit="10"/>
<path d="M109.012 331.711L109.012 311.062L98.1211 311.062L98.1211 331.711L109.012 331.711Z" stroke="#CCB4FB" stroke-width="0.711458" stroke-miterlimit="10"/>
<path d="M109.012 352.361L109.012 331.712L98.1211 331.712L98.1211 352.361L109.012 352.361Z" stroke="#CCB4FB" stroke-width="0.711458" stroke-miterlimit="10"/>
<path d="M109.012 373.009L109.012 352.36L98.1211 352.36L98.1211 373.009L109.012 373.009Z" stroke="#CCB4FB" stroke-width="0.711458" stroke-miterlimit="10"/>
<path d="M109.012 393.659L109.012 373.01L98.1211 373.01L98.1211 393.659L109.012 393.659Z" stroke="#CCB4FB" stroke-width="0.711458" stroke-miterlimit="10"/>
<path d="M109.012 414.307L109.012 393.658L98.1211 393.658L98.1211 414.307L109.012 414.307Z" stroke="#CCB4FB" stroke-width="0.711458" stroke-miterlimit="10"/>
<path d="M98.1211 228.465L98.1211 207.816L87.2305 207.816L87.2305 228.465L98.1211 228.465Z" stroke="#CCB4FB" stroke-width="0.711458" stroke-miterlimit="10"/>
<path d="M98.1211 249.115L98.1211 228.466L87.2305 228.466L87.2305 249.115L98.1211 249.115Z" stroke="#CCB4FB" stroke-width="0.711458" stroke-miterlimit="10"/>
<path d="M98.1211 269.763L98.1211 249.114L87.2305 249.114L87.2305 269.763L98.1211 269.763Z" stroke="#CCB4FB" stroke-width="0.711458" stroke-miterlimit="10"/>
<path d="M98.1211 290.413L98.1211 269.764L87.2305 269.764L87.2305 290.413L98.1211 290.413Z" stroke="#CCB4FB" stroke-width="0.711458" stroke-miterlimit="10"/>
<path d="M98.1211 311.063L98.1211 290.414L87.2305 290.414L87.2305 311.063L98.1211 311.063Z" stroke="#CCB4FB" stroke-width="0.711458" stroke-miterlimit="10"/>
<path d="M98.1211 331.711L98.1211 311.062L87.2305 311.062L87.2305 331.711L98.1211 331.711Z" stroke="#CCB4FB" stroke-width="0.711458" stroke-miterlimit="10"/>
<path d="M98.1211 352.361L98.1211 331.712L87.2305 331.712L87.2305 352.361L98.1211 352.361Z" stroke="#CCB4FB" stroke-width="0.711458" stroke-miterlimit="10"/>
<path d="M98.1211 373.009L98.1211 352.36L87.2305 352.36L87.2305 373.009L98.1211 373.009Z" stroke="#CCB4FB" stroke-width="0.711458" stroke-miterlimit="10"/>
<path d="M98.1211 393.659L98.1211 373.01L87.2305 373.01L87.2305 393.659L98.1211 393.659Z" stroke="#CCB4FB" stroke-width="0.711458" stroke-miterlimit="10"/>
<path d="M98.1211 414.307L98.1211 393.658L87.2305 393.658L87.2305 414.307L98.1211 414.307Z" stroke="#CCB4FB" stroke-width="0.711458" stroke-miterlimit="10"/>
<path d="M87.2305 228.465L87.2305 207.816L76.3399 207.816L76.3399 228.465L87.2305 228.465Z" stroke="#CCB4FB" stroke-width="0.711458" stroke-miterlimit="10"/>
<path d="M87.2305 249.115L87.2305 228.466L76.3399 228.466L76.3399 249.115L87.2305 249.115Z" stroke="#CCB4FB" stroke-width="0.711458" stroke-miterlimit="10"/>
<path d="M87.2305 269.763L87.2305 249.114L76.3399 249.114L76.3399 269.763L87.2305 269.763Z" stroke="#CCB4FB" stroke-width="0.711458" stroke-miterlimit="10"/>
<path d="M87.2305 290.413L87.2305 269.764L76.3399 269.764L76.3399 290.413L87.2305 290.413Z" stroke="#CCB4FB" stroke-width="0.711458" stroke-miterlimit="10"/>
<path d="M87.2305 311.063L87.2305 290.414L76.3399 290.414L76.3399 311.063L87.2305 311.063Z" stroke="#CCB4FB" stroke-width="0.711458" stroke-miterlimit="10"/>
<path d="M87.2305 331.711L87.2305 311.062L76.3399 311.062L76.3399 331.711L87.2305 331.711Z" stroke="#CCB4FB" stroke-width="0.711458" stroke-miterlimit="10"/>
<path d="M87.2305 352.361L87.2305 331.712L76.3399 331.712L76.3399 352.361L87.2305 352.361Z" stroke="#CCB4FB" stroke-width="0.711458" stroke-miterlimit="10"/>
<path d="M87.2305 373.009L87.2305 352.36L76.3399 352.36L76.3399 373.009L87.2305 373.009Z" stroke="#CCB4FB" stroke-width="0.711458" stroke-miterlimit="10"/>
<path d="M87.2305 393.659L87.2305 373.01L76.3399 373.01L76.3399 393.659L87.2305 393.659Z" stroke="#CCB4FB" stroke-width="0.711458" stroke-miterlimit="10"/>
<path d="M87.2305 414.307L87.2305 393.658L76.3399 393.658L76.3399 414.307L87.2305 414.307Z" stroke="#CCB4FB" stroke-width="0.711458" stroke-miterlimit="10"/>
<path d="M76.3398 228.465L76.3398 207.816L65.4492 207.816L65.4492 228.465L76.3398 228.465Z" stroke="#CCB4FB" stroke-width="0.711458" stroke-miterlimit="10"/>
<path d="M76.3398 249.115L76.3398 228.466L65.4492 228.466L65.4492 249.115L76.3398 249.115Z" stroke="#CCB4FB" stroke-width="0.711458" stroke-miterlimit="10"/>
<path d="M76.3398 269.763L76.3398 249.114L65.4492 249.114L65.4492 269.763L76.3398 269.763Z" stroke="#CCB4FB" stroke-width="0.711458" stroke-miterlimit="10"/>
<path d="M76.3398 290.413L76.3398 269.764L65.4492 269.764L65.4492 290.413L76.3398 290.413Z" stroke="#CCB4FB" stroke-width="0.711458" stroke-miterlimit="10"/>
<path d="M76.3398 311.063L76.3398 290.414L65.4492 290.414L65.4492 311.063L76.3398 311.063Z" stroke="#CCB4FB" stroke-width="0.711458" stroke-miterlimit="10"/>
<path d="M76.3398 331.711L76.3398 311.062L65.4492 311.062L65.4492 331.711L76.3398 331.711Z" stroke="#CCB4FB" stroke-width="0.711458" stroke-miterlimit="10"/>
<path d="M76.3398 352.361L76.3398 331.712L65.4492 331.712L65.4492 352.361L76.3398 352.361Z" stroke="#CCB4FB" stroke-width="0.711458" stroke-miterlimit="10"/>
<path d="M76.3398 373.009L76.3398 352.36L65.4492 352.36L65.4492 373.009L76.3398 373.009Z" stroke="#CCB4FB" stroke-width="0.711458" stroke-miterlimit="10"/>
<path d="M76.3398 393.659L76.3398 373.01L65.4492 373.01L65.4492 393.659L76.3398 393.659Z" stroke="#CCB4FB" stroke-width="0.711458" stroke-miterlimit="10"/>
<path d="M76.3398 414.307L76.3398 393.658L65.4492 393.658L65.4492 414.307L76.3398 414.307Z" stroke="#CCB4FB" stroke-width="0.711458" stroke-miterlimit="10"/>
<path d="M65.4492 228.465L65.4492 207.816L54.5586 207.816L54.5586 228.465L65.4492 228.465Z" stroke="#CCB4FB" stroke-width="0.711458" stroke-miterlimit="10"/>
<path d="M65.4492 249.115L65.4492 228.466L54.5586 228.466L54.5586 249.115L65.4492 249.115Z" stroke="#CCB4FB" stroke-width="0.711458" stroke-miterlimit="10"/>
<path d="M65.4492 269.763L65.4492 249.114L54.5586 249.114L54.5586 269.763L65.4492 269.763Z" stroke="#CCB4FB" stroke-width="0.711458" stroke-miterlimit="10"/>
<path d="M65.4492 290.413L65.4492 269.764L54.5586 269.764L54.5586 290.413L65.4492 290.413Z" stroke="#CCB4FB" stroke-width="0.711458" stroke-miterlimit="10"/>
<path d="M65.4492 311.063L65.4492 290.414L54.5586 290.414L54.5586 311.063L65.4492 311.063Z" stroke="#CCB4FB" stroke-width="0.711458" stroke-miterlimit="10"/>
<path d="M65.4492 331.711L65.4492 311.062L54.5586 311.062L54.5586 331.711L65.4492 331.711Z" stroke="#CCB4FB" stroke-width="0.711458" stroke-miterlimit="10"/>
<path d="M65.4492 352.361L65.4492 331.712L54.5586 331.712L54.5586 352.361L65.4492 352.361Z" stroke="#CCB4FB" stroke-width="0.711458" stroke-miterlimit="10"/>
<path d="M65.4492 373.009L65.4492 352.36L54.5586 352.36L54.5586 373.009L65.4492 373.009Z" stroke="#CCB4FB" stroke-width="0.711458" stroke-miterlimit="10"/>
<path d="M65.4492 393.659L65.4492 373.01L54.5586 373.01L54.5586 393.659L65.4492 393.659Z" stroke="#CCB4FB" stroke-width="0.711458" stroke-miterlimit="10"/>
<path d="M65.4492 414.307L65.4492 393.658L54.5586 393.658L54.5586 414.307L65.4492 414.307Z" stroke="#CCB4FB" stroke-width="0.711458" stroke-miterlimit="10"/>
<path d="M54.5605 228.465L54.5605 207.816L43.6699 207.816L43.6699 228.465L54.5605 228.465Z" stroke="#CCB4FB" stroke-width="0.711458" stroke-miterlimit="10"/>
<path d="M54.5605 249.115L54.5605 228.466L43.6699 228.466L43.6699 249.115L54.5605 249.115Z" stroke="#CCB4FB" stroke-width="0.711458" stroke-miterlimit="10"/>
<path d="M54.5605 269.763L54.5605 249.114L43.6699 249.114L43.6699 269.763L54.5605 269.763Z" stroke="#CCB4FB" stroke-width="0.711458" stroke-miterlimit="10"/>
<path d="M54.5605 290.413L54.5605 269.764L43.6699 269.764L43.6699 290.413L54.5605 290.413Z" stroke="#CCB4FB" stroke-width="0.711458" stroke-miterlimit="10"/>
<path d="M54.5605 311.063L54.5605 290.414L43.6699 290.414L43.6699 311.063L54.5605 311.063Z" stroke="#CCB4FB" stroke-width="0.711458" stroke-miterlimit="10"/>
<path d="M54.5605 331.711L54.5605 311.062L43.6699 311.062L43.6699 331.711L54.5605 331.711Z" stroke="#CCB4FB" stroke-width="0.711458" stroke-miterlimit="10"/>
<path d="M54.5605 352.361L54.5605 331.712L43.6699 331.712L43.6699 352.361L54.5605 352.361Z" stroke="#CCB4FB" stroke-width="0.711458" stroke-miterlimit="10"/>
<path d="M54.5605 373.009L54.5605 352.36L43.6699 352.36L43.6699 373.009L54.5605 373.009Z" stroke="#CCB4FB" stroke-width="0.711458" stroke-miterlimit="10"/>
<path d="M54.5605 393.659L54.5605 373.01L43.6699 373.01L43.6699 393.659L54.5605 393.659Z" stroke="#CCB4FB" stroke-width="0.711458" stroke-miterlimit="10"/>
<path d="M54.5605 414.307L54.5605 393.658L43.6699 393.658L43.6699 414.307L54.5605 414.307Z" stroke="#CCB4FB" stroke-width="0.711458" stroke-miterlimit="10"/>
<path d="M43.668 228.465L43.668 207.816L32.7774 207.816L32.7774 228.465L43.668 228.465Z" stroke="#CCB4FB" stroke-width="0.711458" stroke-miterlimit="10"/>
<path d="M43.668 249.115L43.668 228.466L32.7774 228.466L32.7774 249.115L43.668 249.115Z" stroke="#CCB4FB" stroke-width="0.711458" stroke-miterlimit="10"/>
<path d="M43.668 269.763L43.668 249.114L32.7774 249.114L32.7774 269.763L43.668 269.763Z" stroke="#CCB4FB" stroke-width="0.711458" stroke-miterlimit="10"/>
<path d="M43.668 290.413L43.668 269.764L32.7774 269.764L32.7774 290.413L43.668 290.413Z" stroke="#CCB4FB" stroke-width="0.711458" stroke-miterlimit="10"/>
<path d="M43.668 311.063L43.668 290.414L32.7774 290.414L32.7774 311.063L43.668 311.063Z" stroke="#CCB4FB" stroke-width="0.711458" stroke-miterlimit="10"/>
<path d="M43.668 331.711L43.668 311.062L32.7774 311.062L32.7774 331.711L43.668 331.711Z" stroke="#CCB4FB" stroke-width="0.711458" stroke-miterlimit="10"/>
<path d="M43.668 352.361L43.668 331.712L32.7774 331.712L32.7774 352.361L43.668 352.361Z" stroke="#CCB4FB" stroke-width="0.711458" stroke-miterlimit="10"/>
<path d="M43.668 373.009L43.668 352.36L32.7774 352.36L32.7774 373.009L43.668 373.009Z" stroke="#CCB4FB" stroke-width="0.711458" stroke-miterlimit="10"/>
<path d="M43.668 393.659L43.668 373.01L32.7774 373.01L32.7774 393.659L43.668 393.659Z" stroke="#CCB4FB" stroke-width="0.711458" stroke-miterlimit="10"/>
<path d="M43.668 414.307L43.668 393.658L32.7774 393.658L32.7774 414.307L43.668 414.307Z" stroke="#CCB4FB" stroke-width="0.711458" stroke-miterlimit="10"/>
<path d="M32.7773 228.465L32.7773 207.816L21.8867 207.816L21.8867 228.465L32.7773 228.465Z" stroke="#CCB4FB" stroke-width="0.711458" stroke-miterlimit="10"/>
<path d="M32.7773 249.115L32.7773 228.466L21.8867 228.466L21.8867 249.115L32.7773 249.115Z" stroke="#CCB4FB" stroke-width="0.711458" stroke-miterlimit="10"/>
<path d="M32.7773 269.763L32.7773 249.114L21.8867 249.114L21.8867 269.763L32.7773 269.763Z" stroke="#CCB4FB" stroke-width="0.711458" stroke-miterlimit="10"/>
<path d="M32.7773 290.413L32.7773 269.764L21.8867 269.764L21.8867 290.413L32.7773 290.413Z" stroke="#CCB4FB" stroke-width="0.711458" stroke-miterlimit="10"/>
<path d="M32.7773 311.063L32.7773 290.414L21.8867 290.414L21.8867 311.063L32.7773 311.063Z" stroke="#CCB4FB" stroke-width="0.711458" stroke-miterlimit="10"/>
<path d="M32.7773 331.711L32.7773 311.062L21.8867 311.062L21.8867 331.711L32.7773 331.711Z" stroke="#CCB4FB" stroke-width="0.711458" stroke-miterlimit="10"/>
<path d="M32.7773 352.361L32.7773 331.712L21.8867 331.712L21.8867 352.361L32.7773 352.361Z" stroke="#CCB4FB" stroke-width="0.711458" stroke-miterlimit="10"/>
<path d="M32.7773 373.009L32.7773 352.36L21.8867 352.36L21.8867 373.009L32.7773 373.009Z" stroke="#CCB4FB" stroke-width="0.711458" stroke-miterlimit="10"/>
<path d="M32.7773 393.659L32.7773 373.01L21.8867 373.01L21.8867 393.659L32.7773 393.659Z" stroke="#CCB4FB" stroke-width="0.711458" stroke-miterlimit="10"/>
<path d="M32.7773 414.307L32.7773 393.658L21.8867 393.658L21.8867 414.307L32.7773 414.307Z" stroke="#CCB4FB" stroke-width="0.711458" stroke-miterlimit="10"/>
<path d="M21.8867 228.465L21.8867 207.816L10.9961 207.816L10.9961 228.465L21.8867 228.465Z" stroke="#CCB4FB" stroke-width="0.711458" stroke-miterlimit="10"/>
<path d="M21.8867 249.115L21.8867 228.466L10.9961 228.466L10.9961 249.115L21.8867 249.115Z" stroke="#CCB4FB" stroke-width="0.711458" stroke-miterlimit="10"/>
<path d="M21.8867 269.763L21.8867 249.114L10.9961 249.114L10.9961 269.763L21.8867 269.763Z" stroke="#CCB4FB" stroke-width="0.711458" stroke-miterlimit="10"/>
<path d="M21.8867 290.413L21.8867 269.764L10.9961 269.764L10.9961 290.413L21.8867 290.413Z" stroke="#CCB4FB" stroke-width="0.711458" stroke-miterlimit="10"/>
<path d="M21.8867 311.063L21.8867 290.414L10.9961 290.414L10.9961 311.063L21.8867 311.063Z" stroke="#CCB4FB" stroke-width="0.711458" stroke-miterlimit="10"/>
<path d="M21.8867 331.711L21.8867 311.062L10.9961 311.062L10.9961 331.711L21.8867 331.711Z" stroke="#CCB4FB" stroke-width="0.711458" stroke-miterlimit="10"/>
<path d="M21.8867 352.361L21.8867 331.712L10.9961 331.712L10.9961 352.361L21.8867 352.361Z" stroke="#CCB4FB" stroke-width="0.711458" stroke-miterlimit="10"/>
<path d="M21.8867 373.009L21.8867 352.36L10.9961 352.36L10.9961 373.009L21.8867 373.009Z" stroke="#CCB4FB" stroke-width="0.711458" stroke-miterlimit="10"/>
<path d="M21.8867 393.659L21.8867 373.01L10.9961 373.01L10.9961 393.659L21.8867 393.659Z" stroke="#CCB4FB" stroke-width="0.711458" stroke-miterlimit="10"/>
<path d="M21.8867 414.307L21.8867 393.658L10.9961 393.658L10.9961 414.307L21.8867 414.307Z" stroke="#CCB4FB" stroke-width="0.711458" stroke-miterlimit="10"/>
<mask id="mask1_2214_31921" style="mask-type:luminance" maskUnits="userSpaceOnUse" x="0" y="1" width="110" height="414">
<path d="M109.297 415L109.297 1.18457L0.000869751 1.18457L0.000851663 415L109.297 415Z" fill="white"/>
</mask>
<g mask="url(#mask1_2214_31921)">
<path d="M11.1738 228.649L11.1738 208L0.283213 208L0.283212 228.649L11.1738 228.649Z" stroke="#CCB4FB" stroke-width="0.711458" stroke-miterlimit="10"/>
<path d="M11.1738 249.298L11.1738 228.649L0.283213 228.649L0.283212 249.298L11.1738 249.298Z" stroke="#CCB4FB" stroke-width="0.711458" stroke-miterlimit="10"/>
<path d="M11.1738 269.947L11.1738 249.298L0.283213 249.298L0.283212 269.947L11.1738 269.947Z" stroke="#CCB4FB" stroke-width="0.711458" stroke-miterlimit="10"/>
<path d="M11.1738 290.596L11.1738 269.947L0.283213 269.947L0.283212 290.596L11.1738 290.596Z" stroke="#CCB4FB" stroke-width="0.711458" stroke-miterlimit="10"/>
<path d="M11.1738 311.247L11.1738 290.598L0.283213 290.598L0.283212 311.247L11.1738 311.247Z" stroke="#CCB4FB" stroke-width="0.711458" stroke-miterlimit="10"/>
<path d="M11.1738 331.896L11.1738 311.247L0.283213 311.247L0.283212 331.896L11.1738 331.896Z" stroke="#CCB4FB" stroke-width="0.711458" stroke-miterlimit="10"/>
<path d="M11.1738 352.544L11.1738 331.896L0.283213 331.896L0.283212 352.544L11.1738 352.544Z" stroke="#CCB4FB" stroke-width="0.711458" stroke-miterlimit="10"/>
<path d="M11.1738 373.194L11.1738 352.545L0.283213 352.545L0.283212 373.194L11.1738 373.194Z" stroke="#CCB4FB" stroke-width="0.711458" stroke-miterlimit="10"/>
<path d="M11.1738 393.842L11.1738 373.193L0.283213 373.193L0.283212 393.842L11.1738 393.842Z" stroke="#CCB4FB" stroke-width="0.711458" stroke-miterlimit="10"/>
<path d="M11.1738 414.492L11.1738 393.843L0.283213 393.843L0.283212 414.492L11.1738 414.492Z" stroke="#CCB4FB" stroke-width="0.711458" stroke-miterlimit="10"/>
<path d="M54.7386 414.492L109.191 208.001L0.286454 208.001L54.7386 414.492Z" stroke="#CCB4FB" stroke-width="0.711458" stroke-miterlimit="10"/>
<path d="M54.7386 208.001L0.286445 414.492L109.191 414.492L54.7386 208.001Z" stroke="#CCB4FB" stroke-width="0.711458" stroke-miterlimit="10"/>
</g>
</svg>
