<svg width="415" height="111" viewBox="0 0 415 111" fill="none" xmlns="http://www.w3.org/2000/svg">
<path d="M21.9731 1.28516L1.32422 1.28516L1.32422 12.1758L21.9731 12.1758V1.28516Z" stroke="#CCB4FB" stroke-width="0.711458" stroke-miterlimit="10"/>
<path d="M42.6235 1.28516L21.9746 1.28516V12.1758L42.6235 12.1758V1.28516Z" stroke="#CCB4FB" stroke-width="0.711458" stroke-miterlimit="10"/>
<path d="M63.2719 1.28516L42.623 1.28516V12.1758L63.2719 12.1758V1.28516Z" stroke="#CCB4FB" stroke-width="0.711458" stroke-miterlimit="10"/>
<path d="M83.9204 1.28516L63.2715 1.28516V12.1758L83.9204 12.1758V1.28516Z" stroke="#CCB4FB" stroke-width="0.711458" stroke-miterlimit="10"/>
<path d="M104.571 1.28516L83.9219 1.28516V12.1758L104.571 12.1758V1.28516Z" stroke="#CCB4FB" stroke-width="0.711458" stroke-miterlimit="10"/>
<path d="M125.221 1.28516L104.572 1.28516V12.1758L125.221 12.1758V1.28516Z" stroke="#CCB4FB" stroke-width="0.711458" stroke-miterlimit="10"/>
<path d="M145.87 1.28516L125.221 1.28516V12.1758L145.87 12.1758V1.28516Z" stroke="#CCB4FB" stroke-width="0.711458" stroke-miterlimit="10"/>
<path d="M166.518 1.28516L145.869 1.28516V12.1758L166.518 12.1758V1.28516Z" stroke="#CCB4FB" stroke-width="0.711458" stroke-miterlimit="10"/>
<path d="M187.166 1.28516L166.518 1.28516V12.1758L187.166 12.1758V1.28516Z" stroke="#CCB4FB" stroke-width="0.711458" stroke-miterlimit="10"/>
<path d="M207.817 1.28516L187.168 1.28516V12.1758L207.817 12.1758V1.28516Z" stroke="#CCB4FB" stroke-width="0.711458" stroke-miterlimit="10"/>
<path d="M21.9731 12.1748L1.32422 12.1748L1.32422 23.0654L21.9731 23.0654V12.1748Z" stroke="#CCB4FB" stroke-width="0.711458" stroke-miterlimit="10"/>
<path d="M42.6235 12.1748L21.9746 12.1748V23.0654L42.6235 23.0654V12.1748Z" stroke="#CCB4FB" stroke-width="0.711458" stroke-miterlimit="10"/>
<path d="M63.2719 12.1748L42.623 12.1748V23.0654L63.2719 23.0654V12.1748Z" stroke="#CCB4FB" stroke-width="0.711458" stroke-miterlimit="10"/>
<path d="M83.9204 12.1748L63.2715 12.1748V23.0654L83.9204 23.0654V12.1748Z" stroke="#CCB4FB" stroke-width="0.711458" stroke-miterlimit="10"/>
<path d="M104.571 12.1748L83.9219 12.1748V23.0654L104.571 23.0654V12.1748Z" stroke="#CCB4FB" stroke-width="0.711458" stroke-miterlimit="10"/>
<path d="M125.221 12.1748L104.572 12.1748V23.0654L125.221 23.0654V12.1748Z" stroke="#CCB4FB" stroke-width="0.711458" stroke-miterlimit="10"/>
<path d="M145.87 12.1748L125.221 12.1748V23.0654L145.87 23.0654V12.1748Z" stroke="#CCB4FB" stroke-width="0.711458" stroke-miterlimit="10"/>
<path d="M166.518 12.1748L145.869 12.1748V23.0654L166.518 23.0654V12.1748Z" stroke="#CCB4FB" stroke-width="0.711458" stroke-miterlimit="10"/>
<path d="M187.166 12.1748L166.518 12.1748V23.0654L187.166 23.0654V12.1748Z" stroke="#CCB4FB" stroke-width="0.711458" stroke-miterlimit="10"/>
<path d="M207.817 12.1748L187.168 12.1748V23.0654L207.817 23.0654V12.1748Z" stroke="#CCB4FB" stroke-width="0.711458" stroke-miterlimit="10"/>
<path d="M21.9731 23.0664L1.32422 23.0664L1.32422 33.957H21.9731V23.0664Z" stroke="#CCB4FB" stroke-width="0.711458" stroke-miterlimit="10"/>
<path d="M42.6235 23.0664L21.9746 23.0664V33.957H42.6235V23.0664Z" stroke="#CCB4FB" stroke-width="0.711458" stroke-miterlimit="10"/>
<path d="M63.2719 23.0664L42.623 23.0664V33.957H63.2719V23.0664Z" stroke="#CCB4FB" stroke-width="0.711458" stroke-miterlimit="10"/>
<path d="M83.9204 23.0664L63.2715 23.0664V33.957H83.9204V23.0664Z" stroke="#CCB4FB" stroke-width="0.711458" stroke-miterlimit="10"/>
<path d="M104.571 23.0664L83.9219 23.0664V33.957H104.571V23.0664Z" stroke="#CCB4FB" stroke-width="0.711458" stroke-miterlimit="10"/>
<path d="M125.221 23.0664L104.572 23.0664V33.957H125.221V23.0664Z" stroke="#CCB4FB" stroke-width="0.711458" stroke-miterlimit="10"/>
<path d="M145.87 23.0664L125.221 23.0664V33.957H145.87V23.0664Z" stroke="#CCB4FB" stroke-width="0.711458" stroke-miterlimit="10"/>
<path d="M166.518 23.0664L145.869 23.0664V33.957H166.518V23.0664Z" stroke="#CCB4FB" stroke-width="0.711458" stroke-miterlimit="10"/>
<path d="M187.166 23.0664L166.518 23.0664V33.957H187.166V23.0664Z" stroke="#CCB4FB" stroke-width="0.711458" stroke-miterlimit="10"/>
<path d="M207.817 23.0664L187.168 23.0664V33.957H207.817V23.0664Z" stroke="#CCB4FB" stroke-width="0.711458" stroke-miterlimit="10"/>
<path d="M21.9731 33.957H1.32422L1.32422 44.8476H21.9731V33.957Z" stroke="#CCB4FB" stroke-width="0.711458" stroke-miterlimit="10"/>
<path d="M42.6235 33.957H21.9746V44.8476H42.6235V33.957Z" stroke="#CCB4FB" stroke-width="0.711458" stroke-miterlimit="10"/>
<path d="M63.2719 33.957H42.623V44.8476H63.2719V33.957Z" stroke="#CCB4FB" stroke-width="0.711458" stroke-miterlimit="10"/>
<path d="M83.9204 33.957H63.2715V44.8476H83.9204V33.957Z" stroke="#CCB4FB" stroke-width="0.711458" stroke-miterlimit="10"/>
<path d="M104.571 33.957H83.9219V44.8476H104.571V33.957Z" stroke="#CCB4FB" stroke-width="0.711458" stroke-miterlimit="10"/>
<path d="M125.221 33.957H104.572V44.8476H125.221V33.957Z" stroke="#CCB4FB" stroke-width="0.711458" stroke-miterlimit="10"/>
<path d="M145.87 33.957H125.221V44.8476H145.87V33.957Z" stroke="#CCB4FB" stroke-width="0.711458" stroke-miterlimit="10"/>
<path d="M166.518 33.957H145.869V44.8476H166.518V33.957Z" stroke="#CCB4FB" stroke-width="0.711458" stroke-miterlimit="10"/>
<path d="M187.166 33.957H166.518V44.8476H187.166V33.957Z" stroke="#CCB4FB" stroke-width="0.711458" stroke-miterlimit="10"/>
<path d="M207.817 33.957H187.168V44.8476H207.817V33.957Z" stroke="#CCB4FB" stroke-width="0.711458" stroke-miterlimit="10"/>
<path d="M21.9731 44.8467H1.32422L1.32422 55.7373H21.9731V44.8467Z" stroke="#CCB4FB" stroke-width="0.711458" stroke-miterlimit="10"/>
<path d="M42.6235 44.8467H21.9746V55.7373H42.6235V44.8467Z" stroke="#CCB4FB" stroke-width="0.711458" stroke-miterlimit="10"/>
<path d="M63.2719 44.8467H42.623V55.7373H63.2719V44.8467Z" stroke="#CCB4FB" stroke-width="0.711458" stroke-miterlimit="10"/>
<path d="M83.9204 44.8467H63.2715V55.7373H83.9204V44.8467Z" stroke="#CCB4FB" stroke-width="0.711458" stroke-miterlimit="10"/>
<path d="M104.571 44.8467H83.9219V55.7373H104.571V44.8467Z" stroke="#CCB4FB" stroke-width="0.711458" stroke-miterlimit="10"/>
<path d="M125.221 44.8467H104.572V55.7373H125.221V44.8467Z" stroke="#CCB4FB" stroke-width="0.711458" stroke-miterlimit="10"/>
<path d="M145.87 44.8467H125.221V55.7373H145.87V44.8467Z" stroke="#CCB4FB" stroke-width="0.711458" stroke-miterlimit="10"/>
<path d="M166.518 44.8467H145.869V55.7373H166.518V44.8467Z" stroke="#CCB4FB" stroke-width="0.711458" stroke-miterlimit="10"/>
<path d="M187.166 44.8467H166.518V55.7373H187.166V44.8467Z" stroke="#CCB4FB" stroke-width="0.711458" stroke-miterlimit="10"/>
<path d="M207.817 44.8467H187.168V55.7373H207.817V44.8467Z" stroke="#CCB4FB" stroke-width="0.711458" stroke-miterlimit="10"/>
<path d="M21.9731 55.7373H1.32422L1.32422 66.6279H21.9731V55.7373Z" stroke="#CCB4FB" stroke-width="0.711458" stroke-miterlimit="10"/>
<path d="M42.6235 55.7373H21.9746V66.6279H42.6235V55.7373Z" stroke="#CCB4FB" stroke-width="0.711458" stroke-miterlimit="10"/>
<path d="M63.2719 55.7373H42.623V66.6279H63.2719V55.7373Z" stroke="#CCB4FB" stroke-width="0.711458" stroke-miterlimit="10"/>
<path d="M83.9204 55.7373H63.2715V66.6279H83.9204V55.7373Z" stroke="#CCB4FB" stroke-width="0.711458" stroke-miterlimit="10"/>
<path d="M104.571 55.7373H83.9219V66.6279H104.571V55.7373Z" stroke="#CCB4FB" stroke-width="0.711458" stroke-miterlimit="10"/>
<path d="M125.221 55.7373H104.572V66.6279H125.221V55.7373Z" stroke="#CCB4FB" stroke-width="0.711458" stroke-miterlimit="10"/>
<path d="M145.87 55.7373H125.221V66.6279H145.87V55.7373Z" stroke="#CCB4FB" stroke-width="0.711458" stroke-miterlimit="10"/>
<path d="M166.518 55.7373H145.869V66.6279H166.518V55.7373Z" stroke="#CCB4FB" stroke-width="0.711458" stroke-miterlimit="10"/>
<path d="M187.166 55.7373H166.518V66.6279H187.166V55.7373Z" stroke="#CCB4FB" stroke-width="0.711458" stroke-miterlimit="10"/>
<path d="M207.817 55.7373H187.168V66.6279H207.817V55.7373Z" stroke="#CCB4FB" stroke-width="0.711458" stroke-miterlimit="10"/>
<path d="M21.9731 66.6289H1.32422L1.32422 77.5195H21.9731V66.6289Z" stroke="#CCB4FB" stroke-width="0.711458" stroke-miterlimit="10"/>
<path d="M42.6235 66.6289H21.9746V77.5195H42.6235V66.6289Z" stroke="#CCB4FB" stroke-width="0.711458" stroke-miterlimit="10"/>
<path d="M63.2719 66.6289H42.623V77.5195H63.2719V66.6289Z" stroke="#CCB4FB" stroke-width="0.711458" stroke-miterlimit="10"/>
<path d="M83.9204 66.6289H63.2715V77.5195H83.9204V66.6289Z" stroke="#CCB4FB" stroke-width="0.711458" stroke-miterlimit="10"/>
<path d="M104.571 66.6289H83.9219V77.5195H104.571V66.6289Z" stroke="#CCB4FB" stroke-width="0.711458" stroke-miterlimit="10"/>
<path d="M125.221 66.6289H104.572V77.5195H125.221V66.6289Z" stroke="#CCB4FB" stroke-width="0.711458" stroke-miterlimit="10"/>
<path d="M145.87 66.6289H125.221V77.5195H145.87V66.6289Z" stroke="#CCB4FB" stroke-width="0.711458" stroke-miterlimit="10"/>
<path d="M166.518 66.6289H145.869V77.5195H166.518V66.6289Z" stroke="#CCB4FB" stroke-width="0.711458" stroke-miterlimit="10"/>
<path d="M187.166 66.6289H166.518V77.5195H187.166V66.6289Z" stroke="#CCB4FB" stroke-width="0.711458" stroke-miterlimit="10"/>
<path d="M207.817 66.6289H187.168V77.5195H207.817V66.6289Z" stroke="#CCB4FB" stroke-width="0.711458" stroke-miterlimit="10"/>
<path d="M21.9731 77.5195H1.32422L1.32422 88.4101H21.9731V77.5195Z" stroke="#CCB4FB" stroke-width="0.711458" stroke-miterlimit="10"/>
<path d="M42.6235 77.5195H21.9746V88.4101H42.6235V77.5195Z" stroke="#CCB4FB" stroke-width="0.711458" stroke-miterlimit="10"/>
<path d="M63.2719 77.5195H42.623V88.4101H63.2719V77.5195Z" stroke="#CCB4FB" stroke-width="0.711458" stroke-miterlimit="10"/>
<path d="M83.9204 77.5195H63.2715V88.4101H83.9204V77.5195Z" stroke="#CCB4FB" stroke-width="0.711458" stroke-miterlimit="10"/>
<path d="M104.571 77.5195H83.9219V88.4101H104.571V77.5195Z" stroke="#CCB4FB" stroke-width="0.711458" stroke-miterlimit="10"/>
<path d="M125.221 77.5195H104.572V88.4101H125.221V77.5195Z" stroke="#CCB4FB" stroke-width="0.711458" stroke-miterlimit="10"/>
<path d="M145.87 77.5195H125.221V88.4101H145.87V77.5195Z" stroke="#CCB4FB" stroke-width="0.711458" stroke-miterlimit="10"/>
<path d="M166.518 77.5195H145.869V88.4101H166.518V77.5195Z" stroke="#CCB4FB" stroke-width="0.711458" stroke-miterlimit="10"/>
<path d="M187.166 77.5195H166.518V88.4101H187.166V77.5195Z" stroke="#CCB4FB" stroke-width="0.711458" stroke-miterlimit="10"/>
<path d="M207.817 77.5195H187.168V88.4101H207.817V77.5195Z" stroke="#CCB4FB" stroke-width="0.711458" stroke-miterlimit="10"/>
<path d="M21.9731 88.4092H1.32422L1.32422 99.2998H21.9731V88.4092Z" stroke="#CCB4FB" stroke-width="0.711458" stroke-miterlimit="10"/>
<path d="M42.6235 88.4092H21.9746V99.2998H42.6235V88.4092Z" stroke="#CCB4FB" stroke-width="0.711458" stroke-miterlimit="10"/>
<path d="M63.2719 88.4092H42.623V99.2998H63.2719V88.4092Z" stroke="#CCB4FB" stroke-width="0.711458" stroke-miterlimit="10"/>
<path d="M83.9204 88.4092H63.2715V99.2998H83.9204V88.4092Z" stroke="#CCB4FB" stroke-width="0.711458" stroke-miterlimit="10"/>
<path d="M104.571 88.4092H83.9219V99.2998H104.571V88.4092Z" stroke="#CCB4FB" stroke-width="0.711458" stroke-miterlimit="10"/>
<path d="M125.221 88.4092H104.572V99.2998H125.221V88.4092Z" stroke="#CCB4FB" stroke-width="0.711458" stroke-miterlimit="10"/>
<path d="M145.87 88.4092H125.221V99.2998H145.87V88.4092Z" stroke="#CCB4FB" stroke-width="0.711458" stroke-miterlimit="10"/>
<path d="M166.518 88.4092H145.869V99.2998H166.518V88.4092Z" stroke="#CCB4FB" stroke-width="0.711458" stroke-miterlimit="10"/>
<path d="M187.166 88.4092H166.518V99.2998H187.166V88.4092Z" stroke="#CCB4FB" stroke-width="0.711458" stroke-miterlimit="10"/>
<path d="M207.817 88.4092H187.168V99.2998H207.817V88.4092Z" stroke="#CCB4FB" stroke-width="0.711458" stroke-miterlimit="10"/>
<mask id="mask0_2214_31709" style="mask-type:luminance" maskUnits="userSpaceOnUse" x="1" y="1" width="414" height="110">
<path d="M414.632 1.17578L1 1.17578L1 110.294L414.632 110.294V1.17578Z" fill="white"/>
</mask>
<g mask="url(#mask0_2214_31709)">
<path d="M21.9731 99.2979H1.32422L1.32422 110.188H21.9731V99.2979Z" stroke="#CCB4FB" stroke-width="0.711458" stroke-miterlimit="10"/>
<path d="M42.6215 99.2979H21.9727V110.188H42.6215V99.2979Z" stroke="#CCB4FB" stroke-width="0.711458" stroke-miterlimit="10"/>
<path d="M63.27 99.2979H42.6211V110.188H63.27V99.2979Z" stroke="#CCB4FB" stroke-width="0.711458" stroke-miterlimit="10"/>
<path d="M83.9204 99.2979H63.2715V110.188H83.9204V99.2979Z" stroke="#CCB4FB" stroke-width="0.711458" stroke-miterlimit="10"/>
<path d="M104.571 99.2979H83.9219V110.188H104.571V99.2979Z" stroke="#CCB4FB" stroke-width="0.711458" stroke-miterlimit="10"/>
<path d="M125.219 99.2979H104.57V110.188H125.219V99.2979Z" stroke="#CCB4FB" stroke-width="0.711458" stroke-miterlimit="10"/>
<path d="M145.87 99.2979H125.221V110.188H145.87V99.2979Z" stroke="#CCB4FB" stroke-width="0.711458" stroke-miterlimit="10"/>
<path d="M166.518 99.2979H145.869V110.188H166.518V99.2979Z" stroke="#CCB4FB" stroke-width="0.711458" stroke-miterlimit="10"/>
<path d="M187.166 99.2979H166.518V110.188H187.166V99.2979Z" stroke="#CCB4FB" stroke-width="0.711458" stroke-miterlimit="10"/>
<path d="M207.815 99.2979H187.166V110.188H207.815V99.2979Z" stroke="#CCB4FB" stroke-width="0.711458" stroke-miterlimit="10"/>
<path d="M207.816 55.736L1.32422 1.2832L1.32422 110.188L207.816 55.736Z" stroke="#CCB4FB" stroke-width="0.711458" stroke-miterlimit="10"/>
<path d="M1.32422 55.736L207.816 110.188L207.816 1.2832L1.32422 55.736Z" stroke="#CCB4FB" stroke-width="0.711458" stroke-miterlimit="10"/>
</g>
<path d="M228.465 1.28516L207.816 1.28516V12.1758L228.465 12.1758V1.28516Z" stroke="#CCB4FB" stroke-width="0.711458" stroke-miterlimit="10"/>
<path d="M249.114 1.28516L228.465 1.28516V12.1758L249.114 12.1758V1.28516Z" stroke="#CCB4FB" stroke-width="0.711458" stroke-miterlimit="10"/>
<path d="M269.762 1.28516L249.113 1.28516V12.1758L269.762 12.1758V1.28516Z" stroke="#CCB4FB" stroke-width="0.711458" stroke-miterlimit="10"/>
<path d="M290.413 1.28516L269.764 1.28516V12.1758L290.413 12.1758V1.28516Z" stroke="#CCB4FB" stroke-width="0.711458" stroke-miterlimit="10"/>
<path d="M311.063 1.28516L290.414 1.28516V12.1758L311.063 12.1758V1.28516Z" stroke="#CCB4FB" stroke-width="0.711458" stroke-miterlimit="10"/>
<path d="M331.711 1.28516L311.062 1.28516V12.1758L331.711 12.1758V1.28516Z" stroke="#CCB4FB" stroke-width="0.711458" stroke-miterlimit="10"/>
<path d="M352.36 1.28516L331.711 1.28516V12.1758L352.36 12.1758V1.28516Z" stroke="#CCB4FB" stroke-width="0.711458" stroke-miterlimit="10"/>
<path d="M373.01 1.28516L352.361 1.28516V12.1758L373.01 12.1758V1.28516Z" stroke="#CCB4FB" stroke-width="0.711458" stroke-miterlimit="10"/>
<path d="M393.659 1.28516L373.01 1.28516V12.1758L393.659 12.1758V1.28516Z" stroke="#CCB4FB" stroke-width="0.711458" stroke-miterlimit="10"/>
<path d="M414.307 1.28516L393.658 1.28516V12.1758L414.307 12.1758V1.28516Z" stroke="#CCB4FB" stroke-width="0.711458" stroke-miterlimit="10"/>
<path d="M228.465 12.1748L207.816 12.1748V23.0654L228.465 23.0654V12.1748Z" stroke="#CCB4FB" stroke-width="0.711458" stroke-miterlimit="10"/>
<path d="M249.114 12.1748L228.465 12.1748V23.0654L249.114 23.0654V12.1748Z" stroke="#CCB4FB" stroke-width="0.711458" stroke-miterlimit="10"/>
<path d="M269.762 12.1748L249.113 12.1748V23.0654L269.762 23.0654V12.1748Z" stroke="#CCB4FB" stroke-width="0.711458" stroke-miterlimit="10"/>
<path d="M290.413 12.1748L269.764 12.1748V23.0654L290.413 23.0654V12.1748Z" stroke="#CCB4FB" stroke-width="0.711458" stroke-miterlimit="10"/>
<path d="M311.063 12.1748L290.414 12.1748V23.0654L311.063 23.0654V12.1748Z" stroke="#CCB4FB" stroke-width="0.711458" stroke-miterlimit="10"/>
<path d="M331.711 12.1748L311.062 12.1748V23.0654L331.711 23.0654V12.1748Z" stroke="#CCB4FB" stroke-width="0.711458" stroke-miterlimit="10"/>
<path d="M352.36 12.1748L331.711 12.1748V23.0654L352.36 23.0654V12.1748Z" stroke="#CCB4FB" stroke-width="0.711458" stroke-miterlimit="10"/>
<path d="M373.01 12.1748L352.361 12.1748V23.0654L373.01 23.0654V12.1748Z" stroke="#CCB4FB" stroke-width="0.711458" stroke-miterlimit="10"/>
<path d="M393.659 12.1748L373.01 12.1748V23.0654L393.659 23.0654V12.1748Z" stroke="#CCB4FB" stroke-width="0.711458" stroke-miterlimit="10"/>
<path d="M414.307 12.1748L393.658 12.1748V23.0654L414.307 23.0654V12.1748Z" stroke="#CCB4FB" stroke-width="0.711458" stroke-miterlimit="10"/>
<path d="M228.465 23.0664L207.816 23.0664V33.957H228.465V23.0664Z" stroke="#CCB4FB" stroke-width="0.711458" stroke-miterlimit="10"/>
<path d="M249.114 23.0664L228.465 23.0664V33.957H249.114V23.0664Z" stroke="#CCB4FB" stroke-width="0.711458" stroke-miterlimit="10"/>
<path d="M269.762 23.0664L249.113 23.0664V33.957H269.762V23.0664Z" stroke="#CCB4FB" stroke-width="0.711458" stroke-miterlimit="10"/>
<path d="M290.413 23.0664L269.764 23.0664V33.957H290.413V23.0664Z" stroke="#CCB4FB" stroke-width="0.711458" stroke-miterlimit="10"/>
<path d="M311.063 23.0664L290.414 23.0664V33.957H311.063V23.0664Z" stroke="#CCB4FB" stroke-width="0.711458" stroke-miterlimit="10"/>
<path d="M331.711 23.0664L311.062 23.0664V33.957H331.711V23.0664Z" stroke="#CCB4FB" stroke-width="0.711458" stroke-miterlimit="10"/>
<path d="M352.36 23.0664L331.711 23.0664V33.957H352.36V23.0664Z" stroke="#CCB4FB" stroke-width="0.711458" stroke-miterlimit="10"/>
<path d="M373.01 23.0664L352.361 23.0664V33.957H373.01V23.0664Z" stroke="#CCB4FB" stroke-width="0.711458" stroke-miterlimit="10"/>
<path d="M393.659 23.0664L373.01 23.0664V33.957H393.659V23.0664Z" stroke="#CCB4FB" stroke-width="0.711458" stroke-miterlimit="10"/>
<path d="M414.307 23.0664L393.658 23.0664V33.957H414.307V23.0664Z" stroke="#CCB4FB" stroke-width="0.711458" stroke-miterlimit="10"/>
<path d="M228.465 33.957H207.816V44.8476H228.465V33.957Z" stroke="#CCB4FB" stroke-width="0.711458" stroke-miterlimit="10"/>
<path d="M249.114 33.957H228.465V44.8476H249.114V33.957Z" stroke="#CCB4FB" stroke-width="0.711458" stroke-miterlimit="10"/>
<path d="M269.762 33.957H249.113V44.8476H269.762V33.957Z" stroke="#CCB4FB" stroke-width="0.711458" stroke-miterlimit="10"/>
<path d="M290.413 33.957H269.764V44.8476H290.413V33.957Z" stroke="#CCB4FB" stroke-width="0.711458" stroke-miterlimit="10"/>
<path d="M311.063 33.957H290.414V44.8476H311.063V33.957Z" stroke="#CCB4FB" stroke-width="0.711458" stroke-miterlimit="10"/>
<path d="M331.711 33.957H311.062V44.8476H331.711V33.957Z" stroke="#CCB4FB" stroke-width="0.711458" stroke-miterlimit="10"/>
<path d="M352.36 33.957H331.711V44.8476H352.36V33.957Z" stroke="#CCB4FB" stroke-width="0.711458" stroke-miterlimit="10"/>
<path d="M373.01 33.957H352.361V44.8476H373.01V33.957Z" stroke="#CCB4FB" stroke-width="0.711458" stroke-miterlimit="10"/>
<path d="M393.659 33.957H373.01V44.8476H393.659V33.957Z" stroke="#CCB4FB" stroke-width="0.711458" stroke-miterlimit="10"/>
<path d="M414.307 33.957H393.658V44.8476H414.307V33.957Z" stroke="#CCB4FB" stroke-width="0.711458" stroke-miterlimit="10"/>
<path d="M228.465 44.8467H207.816V55.7373H228.465V44.8467Z" stroke="#CCB4FB" stroke-width="0.711458" stroke-miterlimit="10"/>
<path d="M249.114 44.8467H228.465V55.7373H249.114V44.8467Z" stroke="#CCB4FB" stroke-width="0.711458" stroke-miterlimit="10"/>
<path d="M269.762 44.8467H249.113V55.7373H269.762V44.8467Z" stroke="#CCB4FB" stroke-width="0.711458" stroke-miterlimit="10"/>
<path d="M290.413 44.8467H269.764V55.7373H290.413V44.8467Z" stroke="#CCB4FB" stroke-width="0.711458" stroke-miterlimit="10"/>
<path d="M311.063 44.8467H290.414V55.7373H311.063V44.8467Z" stroke="#CCB4FB" stroke-width="0.711458" stroke-miterlimit="10"/>
<path d="M331.711 44.8467H311.062V55.7373H331.711V44.8467Z" stroke="#CCB4FB" stroke-width="0.711458" stroke-miterlimit="10"/>
<path d="M352.36 44.8467H331.711V55.7373H352.36V44.8467Z" stroke="#CCB4FB" stroke-width="0.711458" stroke-miterlimit="10"/>
<path d="M373.01 44.8467H352.361V55.7373H373.01V44.8467Z" stroke="#CCB4FB" stroke-width="0.711458" stroke-miterlimit="10"/>
<path d="M393.659 44.8467H373.01V55.7373H393.659V44.8467Z" stroke="#CCB4FB" stroke-width="0.711458" stroke-miterlimit="10"/>
<path d="M414.307 44.8467H393.658V55.7373H414.307V44.8467Z" stroke="#CCB4FB" stroke-width="0.711458" stroke-miterlimit="10"/>
<path d="M228.465 55.7373H207.816V66.6279H228.465V55.7373Z" stroke="#CCB4FB" stroke-width="0.711458" stroke-miterlimit="10"/>
<path d="M249.114 55.7373H228.465V66.6279H249.114V55.7373Z" stroke="#CCB4FB" stroke-width="0.711458" stroke-miterlimit="10"/>
<path d="M269.762 55.7373H249.113V66.6279H269.762V55.7373Z" stroke="#CCB4FB" stroke-width="0.711458" stroke-miterlimit="10"/>
<path d="M290.413 55.7373H269.764V66.6279H290.413V55.7373Z" stroke="#CCB4FB" stroke-width="0.711458" stroke-miterlimit="10"/>
<path d="M311.063 55.7373H290.414V66.6279H311.063V55.7373Z" stroke="#CCB4FB" stroke-width="0.711458" stroke-miterlimit="10"/>
<path d="M331.711 55.7373H311.062V66.6279H331.711V55.7373Z" stroke="#CCB4FB" stroke-width="0.711458" stroke-miterlimit="10"/>
<path d="M352.36 55.7373H331.711V66.6279H352.36V55.7373Z" stroke="#CCB4FB" stroke-width="0.711458" stroke-miterlimit="10"/>
<path d="M373.01 55.7373H352.361V66.6279H373.01V55.7373Z" stroke="#CCB4FB" stroke-width="0.711458" stroke-miterlimit="10"/>
<path d="M393.659 55.7373H373.01V66.6279H393.659V55.7373Z" stroke="#CCB4FB" stroke-width="0.711458" stroke-miterlimit="10"/>
<path d="M414.307 55.7373H393.658V66.6279H414.307V55.7373Z" stroke="#CCB4FB" stroke-width="0.711458" stroke-miterlimit="10"/>
<path d="M228.465 66.6289H207.816V77.5195H228.465V66.6289Z" stroke="#CCB4FB" stroke-width="0.711458" stroke-miterlimit="10"/>
<path d="M249.114 66.6289H228.465V77.5195H249.114V66.6289Z" stroke="#CCB4FB" stroke-width="0.711458" stroke-miterlimit="10"/>
<path d="M269.762 66.6289H249.113V77.5195H269.762V66.6289Z" stroke="#CCB4FB" stroke-width="0.711458" stroke-miterlimit="10"/>
<path d="M290.413 66.6289H269.764V77.5195H290.413V66.6289Z" stroke="#CCB4FB" stroke-width="0.711458" stroke-miterlimit="10"/>
<path d="M311.063 66.6289H290.414V77.5195H311.063V66.6289Z" stroke="#CCB4FB" stroke-width="0.711458" stroke-miterlimit="10"/>
<path d="M331.711 66.6289H311.062V77.5195H331.711V66.6289Z" stroke="#CCB4FB" stroke-width="0.711458" stroke-miterlimit="10"/>
<path d="M352.36 66.6289H331.711V77.5195H352.36V66.6289Z" stroke="#CCB4FB" stroke-width="0.711458" stroke-miterlimit="10"/>
<path d="M373.01 66.6289H352.361V77.5195H373.01V66.6289Z" stroke="#CCB4FB" stroke-width="0.711458" stroke-miterlimit="10"/>
<path d="M393.659 66.6289H373.01V77.5195H393.659V66.6289Z" stroke="#CCB4FB" stroke-width="0.711458" stroke-miterlimit="10"/>
<path d="M414.307 66.6289H393.658V77.5195H414.307V66.6289Z" stroke="#CCB4FB" stroke-width="0.711458" stroke-miterlimit="10"/>
<path d="M228.465 77.5195H207.816V88.4101H228.465V77.5195Z" stroke="#CCB4FB" stroke-width="0.711458" stroke-miterlimit="10"/>
<path d="M249.114 77.5195H228.465V88.4101H249.114V77.5195Z" stroke="#CCB4FB" stroke-width="0.711458" stroke-miterlimit="10"/>
<path d="M269.762 77.5195H249.113V88.4101H269.762V77.5195Z" stroke="#CCB4FB" stroke-width="0.711458" stroke-miterlimit="10"/>
<path d="M290.413 77.5195H269.764V88.4101H290.413V77.5195Z" stroke="#CCB4FB" stroke-width="0.711458" stroke-miterlimit="10"/>
<path d="M311.063 77.5195H290.414V88.4101H311.063V77.5195Z" stroke="#CCB4FB" stroke-width="0.711458" stroke-miterlimit="10"/>
<path d="M331.711 77.5195H311.062V88.4101H331.711V77.5195Z" stroke="#CCB4FB" stroke-width="0.711458" stroke-miterlimit="10"/>
<path d="M352.36 77.5195H331.711V88.4101H352.36V77.5195Z" stroke="#CCB4FB" stroke-width="0.711458" stroke-miterlimit="10"/>
<path d="M373.01 77.5195H352.361V88.4101H373.01V77.5195Z" stroke="#CCB4FB" stroke-width="0.711458" stroke-miterlimit="10"/>
<path d="M393.659 77.5195H373.01V88.4101H393.659V77.5195Z" stroke="#CCB4FB" stroke-width="0.711458" stroke-miterlimit="10"/>
<path d="M414.307 77.5195H393.658V88.4101H414.307V77.5195Z" stroke="#CCB4FB" stroke-width="0.711458" stroke-miterlimit="10"/>
<path d="M228.465 88.4092H207.816V99.2998H228.465V88.4092Z" stroke="#CCB4FB" stroke-width="0.711458" stroke-miterlimit="10"/>
<path d="M249.114 88.4092H228.465V99.2998H249.114V88.4092Z" stroke="#CCB4FB" stroke-width="0.711458" stroke-miterlimit="10"/>
<path d="M269.762 88.4092H249.113V99.2998H269.762V88.4092Z" stroke="#CCB4FB" stroke-width="0.711458" stroke-miterlimit="10"/>
<path d="M290.413 88.4092H269.764V99.2998H290.413V88.4092Z" stroke="#CCB4FB" stroke-width="0.711458" stroke-miterlimit="10"/>
<path d="M311.063 88.4092H290.414V99.2998H311.063V88.4092Z" stroke="#CCB4FB" stroke-width="0.711458" stroke-miterlimit="10"/>
<path d="M331.711 88.4092H311.062V99.2998H331.711V88.4092Z" stroke="#CCB4FB" stroke-width="0.711458" stroke-miterlimit="10"/>
<path d="M352.36 88.4092H331.711V99.2998H352.36V88.4092Z" stroke="#CCB4FB" stroke-width="0.711458" stroke-miterlimit="10"/>
<path d="M373.01 88.4092H352.361V99.2998H373.01V88.4092Z" stroke="#CCB4FB" stroke-width="0.711458" stroke-miterlimit="10"/>
<path d="M393.659 88.4092H373.01V99.2998H393.659V88.4092Z" stroke="#CCB4FB" stroke-width="0.711458" stroke-miterlimit="10"/>
<path d="M414.307 88.4092H393.658V99.2998H414.307V88.4092Z" stroke="#CCB4FB" stroke-width="0.711458" stroke-miterlimit="10"/>
<mask id="mask1_2214_31709" style="mask-type:luminance" maskUnits="userSpaceOnUse" x="1" y="1" width="414" height="110">
<path d="M414.999 1L1.18359 1L1.18359 110.296L414.999 110.296V1Z" fill="white"/>
</mask>
<g mask="url(#mask1_2214_31709)">
<path d="M228.649 99.123H208V110.014H228.649V99.123Z" stroke="#CCB4FB" stroke-width="0.711458" stroke-miterlimit="10"/>
<path d="M249.299 99.123H228.65V110.014H249.299V99.123Z" stroke="#CCB4FB" stroke-width="0.711458" stroke-miterlimit="10"/>
<path d="M269.948 99.123H249.299V110.014H269.948V99.123Z" stroke="#CCB4FB" stroke-width="0.711458" stroke-miterlimit="10"/>
<path d="M290.596 99.123H269.947V110.014H290.596V99.123Z" stroke="#CCB4FB" stroke-width="0.711458" stroke-miterlimit="10"/>
<path d="M311.247 99.123H290.598V110.014H311.247V99.123Z" stroke="#CCB4FB" stroke-width="0.711458" stroke-miterlimit="10"/>
<path d="M331.895 99.123H311.246V110.014H331.895V99.123Z" stroke="#CCB4FB" stroke-width="0.711458" stroke-miterlimit="10"/>
<path d="M352.545 99.123H331.896V110.014H352.545V99.123Z" stroke="#CCB4FB" stroke-width="0.711458" stroke-miterlimit="10"/>
<path d="M373.194 99.123H352.545V110.014H373.194V99.123Z" stroke="#CCB4FB" stroke-width="0.711458" stroke-miterlimit="10"/>
<path d="M393.842 99.123H373.193V110.014H393.842V99.123Z" stroke="#CCB4FB" stroke-width="0.711458" stroke-miterlimit="10"/>
<path d="M414.491 99.123H393.842V110.014H414.491V99.123Z" stroke="#CCB4FB" stroke-width="0.711458" stroke-miterlimit="10"/>
<path d="M414.491 55.5592L208 1.10645L208 110.011L414.491 55.5592Z" stroke="#CCB4FB" stroke-width="0.711458" stroke-miterlimit="10"/>
<path d="M208 55.5592L414.491 110.011V1.10645L208 55.5592Z" stroke="#CCB4FB" stroke-width="0.711458" stroke-miterlimit="10"/>
</g>
</svg>
