<svg width="21" height="19" viewBox="0 0 21 19" fill="none" xmlns="http://www.w3.org/2000/svg">
<path d="M20.3537 6.25C20.3503 6.17314 20.3351 6.09725 20.3087 6.025V4C20.3087 3.40326 20.0716 2.83097 19.6497 2.40901C19.2277 1.98705 18.6554 1.75 18.0587 1.75H15.0587V1C15.0587 0.801088 14.9797 0.610322 14.839 0.46967C14.6984 0.329018 14.5076 0.25 14.3087 0.25C14.1098 0.25 13.919 0.329018 13.7783 0.46967C13.6377 0.610322 13.5587 0.801088 13.5587 1V1.75H7.55867V1C7.55867 0.801088 7.47965 0.610322 7.339 0.46967C7.19835 0.329018 7.00758 0.25 6.80867 0.25C6.60976 0.25 6.41899 0.329018 6.27834 0.46967C6.13769 0.610322 6.05867 0.801088 6.05867 1V1.75H3.05867C2.46193 1.75 1.88964 1.98705 1.46768 2.40901C1.04572 2.83097 0.808672 3.40326 0.808672 4V6.025C0.778966 6.09629 0.763672 6.17276 0.763672 6.25C0.763672 6.32724 0.778966 6.40371 0.808672 6.475V16C0.808672 16.5967 1.04572 17.169 1.46768 17.591C1.88964 18.0129 2.46193 18.25 3.05867 18.25H18.0587C18.6554 18.25 19.2277 18.0129 19.6497 17.591C20.0716 17.169 20.3087 16.5967 20.3087 16V6.475C20.3351 6.40275 20.3503 6.32686 20.3537 6.25ZM3.05867 3.25H6.05867V4C6.05867 4.19891 6.13769 4.38968 6.27834 4.53033C6.41899 4.67098 6.60976 4.75 6.80867 4.75C7.00758 4.75 7.19835 4.67098 7.339 4.53033C7.47965 4.38968 7.55867 4.19891 7.55867 4V3.25H13.5587V4C13.5587 4.19891 13.6377 4.38968 13.7783 4.53033C13.919 4.67098 14.1098 4.75 14.3087 4.75C14.5076 4.75 14.6984 4.67098 14.839 4.53033C14.9797 4.38968 15.0587 4.19891 15.0587 4V3.25H18.0587C18.2576 3.25 18.4484 3.32902 18.589 3.46967C18.7297 3.61032 18.8087 3.80109 18.8087 4V5.5H2.30867V4C2.30867 3.80109 2.38769 3.61032 2.52834 3.46967C2.66899 3.32902 2.85976 3.25 3.05867 3.25ZM18.0587 16.75H3.05867C2.85976 16.75 2.66899 16.671 2.52834 16.5303C2.38769 16.3897 2.30867 16.1989 2.30867 16V7H18.8087V16C18.8087 16.1989 18.7297 16.3897 18.589 16.5303C18.4484 16.671 18.2576 16.75 18.0587 16.75Z" fill="#0068FF"/>
</svg>
